<svg height="18" viewBox="0 0 18 18" width="18" xmlns="http://www.w3.org/2000/svg"><path d="m9.73687427 10.1982763c.13541288-.0071952.26741843.043835.36253503.1401474.0951166.0963125.1442065.2286545.1348187.3634592v1.998445c-.0320173.2516271-.24683198.4402594-.50136784.4402594-.25453585 0-.46935054-.1886323-.5013678-.4402594v-1.998445c-.00963602-.1362823.04050677-.2700319.1374524-.366637.09694562-.0966051.23116674-.1465717.36792951-.1369696zm-6.72238778-2.1982763c.11222682.0137273.22457493-.02457329.30484606-.10392506l3.30502468-3.19748946 1.80493537 1.70266979c.09227452.09575986.21974175.1498893.35296827.1498893s.26069375-.05412944.35296827-.1498893l3.10448886-2.99765808v.59953162c.0273635.14951652.0969337.28816151.2005546.39968149.0958914.12435446.2437215.19801331.4010905.19985012.1367628.00960218.2709839-.04036447.3679295-.13696954.0969456-.09660506.1470884-.23035468.1374524-.36663702v-1.79061358c0-.3996815-.1042914-.50360656-.4010905-.50360656h-2.00549c-.1367628-.00960217-.2709839.04036448-.3679295.13696954-.0969456.09660507-.1470884.23035468-.1374524.36663702-.0072262.13494036.0439814.26648729.1406341.36127404.0966527.09478676.2294645.14370667.3647478.13435125h.4973537l-2.60711632 2.59795785-1.80493537-1.69466979c-.09086957-.09531633-.21701991-.14928392-.34895417-.14928392-.13193427 0-.2580846.05396759-.34895417.14928392l-3.61789895 3.49326464c-.09565234.09055036-.14981018.21625754-.14981018.34772833 0 .1314708.05415784.25717798.14981018.34772834 0 .10392506.20055465.10392506.30482727.10392506zm9.92313981.19985012c-.1354129-.00719526-.2674184.04383492-.362535.1401474-.0951167.09631247-.1442065.22865447-.1348187.36345915v3.99687123c.0320173.2516271.246832.4402594.5013678.4402594.2545359 0 .4693506-.1886323.5013678-.4402594v-3.99687123c-.1042914-.30377517-.2968178-.50360655-.5053819-.50360655zm-6.9149142-.50360656v4.99608434c-.0246012.193573.06522154.3838873.23053605.4884544.16531452.104567.37636779.104567.54168231 0 .16531452-.1045671.25513725-.2948814.23053605-.4884544v-4.99608434c-.03198348-.25165998-.24681286-.4403334-.5013772-.4403334s-.46939373.18867342-.50137721.4403334zm9.5300588 7.29828574h-14.03837372c-.13676277.0096021-.27098389-.0403645-.36792951-.1369696-.09694562-.096605-.14708842-.2303546-.13745239-.366637v-13.98107727c.00938839-.13480811-.03970397-.26715336-.13482488-.36346651-.0951209-.09631315-.22713157-.14734087-.36254763-.14014004-.13676277-.00960218-.27098388.04036447-.36792951.13696954-.09694562.09660506-.14708841.23035468-.13745239.36663701v14.48468387c-.01659845.2697442.08370675.5336268.2754766.7247229.19176985.1910962.4565827.2910491.72727781.2745089h14.54375562c.2525471-.0318711.4418857-.2459458.4418857-.4996159s-.1893386-.4677448-.4418857-.4996159zm-12.73882025-5.29185951v2.99765811c-.00722063.1349372.04398945.2664789.14064145.3612615.096652.0947825.22946054.1436999.36474045.134345.13393055.0069778.26454389-.0429931.35937644-.1374925.09483256-.0944995.14497961-.224654.13797726-.358114v-2.99765811c.00938787-.13480469-.03970202-.26714668-.13481867-.36345916-.09511664-.09631247-.22712215-.14734266-.36253503-.1401474-.13676277-.00960217-.27098388.04036448-.36792951.13696954-.09694562.09660507-.14708842.23035468-.13745239.36663702z" stroke-width="1" transform="translate(1 1)"/></svg>