<?xml version="1.0" encoding="UTF-8"?>
<svg width="18px" height="18px" viewBox="0 0 18 18" version="1.1" xmlns="http://www.w3.org/2000/svg" xmlns:xlink="http://www.w3.org/1999/xlink">
    <!-- Generator: Sketch 50.2 (55047) - http://www.bohemiancoding.com/sketch -->
    <title>ic_dash@2x</title>
    <desc>Created with Sketch.</desc>
    <defs></defs>
    <g id="[交互]imes-web_1218" stroke="none" stroke-width="1">
        <g id="1-1左侧导航-系统主数据" transform="translate(-26.000000, -89.000000)">
            <g id="Group-4">
                <g id="ic_dash" transform="translate(25.000000, 88.000000)">
                    <g id="收藏-(1)">
                        <g transform="translate(1.000000, 1.000000)">
                            <path d="M13.2094578,10.0800767 C12.6889343,10.6106226 12.4514582,11.374916 12.5744067,12.123926 L13.1756385,15.7874048 L10.0279394,14.0577924 C9.71082445,13.8838551 9.35812006,13.7928068 9,13.7924368 C8.6430186,13.7924368 8.28812483,13.8840892 7.97206059,14.0577924 L4.82436153,15.7874048 L5.42559334,12.123926 C5.5485418,11.374916 5.31106569,10.6106226 4.79054224,10.0800767 L2.24365744,7.48543982 L5.76336871,6.95080061 C6.48263957,6.84175586 7.10444262,6.36953488 7.4259417,5.68817919 L9,2.35421273 L10.5740583,5.68817919 C10.8956386,6.36965037 11.5176229,6.84189043 12.2370488,6.95080061 L15.7563426,7.48543982 L13.2094578,10.0800767 Z M17.1166677,6.06289551 L12.682808,5.38929603 C12.3471148,5.33840955 12.0569376,5.1179533 11.9070063,4.79989651 L9.92430202,0.600248447 C9.75277262,0.230537916 9.39307345,-0.00304169394 9,2.99287043e-05 C8.63279921,2.99287043e-05 8.2646984,0.199945969 8.07569798,0.600248447 L6.09299366,4.79989651 C5.94293961,5.11784515 5.65282466,5.33825407 5.31719197,5.38929603 L0.883332296,6.06289551 C0.03823045,6.19131218 -0.299270277,7.27697387 0.312281049,7.90024152 L3.52078806,11.1689864 C3.76333859,11.4164119 3.87403883,11.7734385 3.81688869,12.1224683 L3.05953704,16.7384122 C2.94523679,17.4350608 3.47488794,18 4.07518927,18 C4.2331396,18 4.39648996,17.9609576 4.5544403,17.8739353 L8.52074895,15.6946152 C8.82080724,15.5298422 9.17919276,15.5298422 9.47925105,15.6946152 L13.4455597,17.8739353 C13.6030601,17.9609576 13.7664104,18 13.9248107,18 C14.525112,18 15.0547632,17.4350608 14.940463,16.7384122 L14.1831113,12.1224683 C14.1260197,11.7730967 14.2366993,11.4166945 14.4792119,11.1689864 L17.687719,7.90024152 C18.2992703,7.27697385 17.9617695,6.19131216 17.1166677,6.06289551 Z" id="Shape"></path>
                        </g>
                    </g>
                </g>
            </g>
        </g>
    </g>
</svg>
