<?xml version="1.0" encoding="UTF-8"?>
<svg width="16px" height="18px" viewBox="0 0 16 18" version="1.1" xmlns="http://www.w3.org/2000/svg" xmlns:xlink="http://www.w3.org/1999/xlink">
    <!-- Generator: Sketch 50.2 (55047) - http://www.bohemiancoding.com/sketch -->
    <title>ic_dingdan@2x</title>
    <desc>Created with Sketch.</desc>
    <defs></defs>
    <g id="[交互]imes-web_1218" stroke="none" stroke-width="1">
        <g id="1-1左侧导航-系统主数据" transform="translate(-27.000000, -278.000000)">
            <g id="Group-4">
                <g id="ic_events" transform="translate(25.000000, 277.000000)">
                    <g id="Shape">
                        <path d="M5.83333333,9.16666667 L7.5,9.16666667 L7.5,10.8333333 L5.83333333,10.8333333 L5.83333333,9.16666667 Z M17.5,5 L17.5,16.6666667 C17.5,17.5833333 16.75,18.3333333 15.8333333,18.3333333 L4.16666667,18.3333333 C3.24166667,18.3333333 2.5,17.5833333 2.5,16.6666667 L2.50833333,5 C2.50833333,4.08333333 3.24166667,3.33333333 4.16666667,3.33333333 L5,3.33333333 L5,1.66666667 L6.66666667,1.66666667 L6.66666667,3.33333333 L13.3333333,3.33333333 L13.3333333,1.66666667 L15,1.66666667 L15,3.33333333 L15.8333333,3.33333333 C16.75,3.33333333 17.5,4.08333333 17.5,5 Z M4.16666667,6.66666667 L15.8333333,6.66666667 L15.8333333,5 L4.16666667,5 L4.16666667,6.66666667 Z M15.8333333,16.6666667 L15.8333333,8.33333333 L4.16666667,8.33333333 L4.16666667,16.6666667 L15.8333333,16.6666667 Z M12.5,10.8333333 L14.1666667,10.8333333 L14.1666667,9.16666667 L12.5,9.16666667 L12.5,10.8333333 Z M9.16666667,10.8333333 L10.8333333,10.8333333 L10.8333333,9.16666667 L9.16666667,9.16666667 L9.16666667,10.8333333 Z" fill-rule="nonzero"></path>
                    </g>
                </g>
            </g>
        </g>
    </g>
</svg>
