<?xml version="1.0" standalone="no"?><!DOCTYPE svg PUBLIC "-//W3C//DTD SVG 1.1//EN" "http://www.w3.org/Graphics/SVG/1.1/DTD/svg11.dtd"><svg t="1545807155888" class="icon" style="" viewBox="0 0 1024 1024" version="1.1" xmlns="http://www.w3.org/2000/svg" p-id="11856" xmlns:xlink="http://www.w3.org/1999/xlink" width="200" height="200"><defs><style type="text/css"></style></defs><path d="M665.6 1008.64H168.96c-40.96 0-76.8-35.84-76.8-76.8V92.16c0-40.96 35.84-76.8 76.8-76.8h491.52c46.08 0 81.92 35.84 81.92 76.8V204.8h-51.2V92.16c0-15.36-10.24-25.6-25.6-25.6H168.96c-15.36 0-25.6 10.24-25.6 25.6v834.56c0 15.36 10.24 25.6 25.6 25.6h491.52c15.36 0 25.6-10.24 25.6-25.6v-133.12h51.2v133.12c5.12 46.08-30.72 81.92-71.68 81.92z" fill="#e6e6e6" p-id="11857"></path><path d="M863.0272 485.5296l0.3584 51.2-445.44 3.072-0.3584-51.2z" fill="#e6e6e6" p-id="11858"></path><path d="M711.68 716.8l-35.84-35.84L844.8 512l-168.96-168.96 35.84-35.84 209.92 204.8z" fill="#e6e6e6" p-id="11859"></path></svg>