<?xml version="1.0" standalone="no"?><!DOCTYPE svg PUBLIC "-//W3C//DTD SVG 1.1//EN" "http://www.w3.org/Graphics/SVG/1.1/DTD/svg11.dtd"><svg t="1545807181342" class="icon" style="" viewBox="0 0 1024 1024" version="1.1" xmlns="http://www.w3.org/2000/svg" p-id="12167" xmlns:xlink="http://www.w3.org/1999/xlink" width="200" height="200"><defs><style type="text/css"></style></defs><path d="M603.164 833.793h-0.036a18.219 18.219 0 0 0-18.227 18.188c-0.07 40.243-32.765 72.992-72.901 72.992s-72.83-32.749-72.901-72.992a18.22 18.22 0 0 0-18.227-18.188h-0.036c-10.055 0.018-18.207 8.186-18.189 18.26 0.107 60.3 49.16 109.371 109.353 109.371s109.244-49.07 109.355-109.37c0.016-10.075-8.136-18.243-18.19-18.261z m214.41-143.705c-11.12-9.503-21.122-71.87-21.142-132.844V451.469c0-133.7-75.82-250.192-190.135-294.56v-0.037c0-51.987-42.306-94.294-94.297-94.294-51.987 0-94.277 42.307-94.277 94.294v0.374c-112.628 45.938-190.155 164.812-190.155 294.223v104.707c-0.016 61.207-9.86 123.981-20.824 133.932-31.129 0.993-55.228 25.325-55.228 56.205 0 31.023 25.239 56.26 56.242 56.26h608.488c31.001 0 56.24-25.237 56.24-56.26 0-30.557-24.51-55.511-54.911-56.225z m-1.328 78.352H207.758c-12.192 0-22.11-9.927-22.11-22.127 0-12.388 9.33-21.678 22.184-22.09a34.142 34.142 0 0 0 21.851-8.838c8.917-8.094 18.155-21.904 25.304-67.764 4.32-27.72 6.705-60.19 6.713-91.437V451.467c0-56.77 16.374-112.046 47.355-159.852 30.645-47.293 72.68-82.83 121.559-102.766a34.134 34.134 0 0 0 21.24-31.607v-0.374c0-33.174 26.98-60.163 60.144-60.163 33.174 0 60.163 26.99 60.163 60.163a34.18 34.18 0 0 0 21.783 31.856c49.449 19.192 91.508 53.946 121.63 100.504 30.565 47.243 46.722 103.345 46.722 162.237V557.24c0.01 31.19 2.439 63.539 6.834 91.104 7.347 46.038 16.966 59.742 26.266 67.691a34.134 34.134 0 0 0 21.374 8.174c11.901 0.281 21.58 10.193 21.58 22.102 0.002 12.202-9.914 22.129-22.104 22.129z" p-id="12168" fill="#e6e6e6"></path></svg>