<?xml version="1.0" standalone="no"?><!DOCTYPE svg PUBLIC "-//W3C//DTD SVG 1.1//EN" "http://www.w3.org/Graphics/SVG/1.1/DTD/svg11.dtd"><svg t="1545807083461" class="icon" style="" viewBox="0 0 1025 1024" version="1.1" xmlns="http://www.w3.org/2000/svg" p-id="11379" xmlns:xlink="http://www.w3.org/1999/xlink" width="200.1953125" height="200"><defs><style type="text/css"></style></defs><path d="M692.28623129 211.46209121c-36.41592795 0-70.65219163 14.18086294-96.40204455 39.93071585s-39.93071585 59.98611661-39.93071586 96.40204456c0 36.41592795 14.18086294 70.65219163 39.93071586 96.40204454 25.74985292 25.74985292 59.98611661 39.93071585 96.40204455 39.93071586s70.65219163-14.18086294 96.40204454-39.93071586c53.15649961-53.15649961 53.15649961-139.64883225 0-192.8040903C762.93842292 225.64419569 728.70215922 211.46209121 692.28623129 211.46209121zM744.77827474 400.28689628c-14.02064805 14.02188959-32.66268243 21.74324402-52.49204345 21.74324402s-38.4713954-7.72135443-52.49204346-21.74324402c-14.02064805-14.02064805-21.74324402-32.66268243-21.74324402-52.49080191 0-19.82936101 7.72259598-38.4713954 21.74324402-52.49204346 14.02064805-14.02188959 32.66268243-21.74324402 52.49204346-21.74324402s38.4713954 7.72135443 52.49204345 21.74324402C773.72124304 324.24826197 773.72124304 371.34268522 744.77827474 400.28689628zM925.48801908 114.59430658c-62.28997886-62.28997886-145.10979299-96.59455047-233.20178779-96.59455048s-170.91056739 34.30457162-233.20178779 96.59455048c-46.9379342 46.9379342-78.30523692 106.08820224-90.71007668 171.05587769-10.78157858 56.46015116-6.76379216 114.16227749 11.55036076 168.1397223l-43.52250493 43.52126338-38.82660053-38.82784207c-16.24502363-16.24626517-37.90257205-25.19344864-60.98093853-25.19344864-23.07960801 0-44.73715644 8.94718225-60.98218006 25.19344864-33.6227278 33.62397055-33.62397055 88.33417945-0.00124155 121.95815l38.82660054 38.82908482-26.53602279 26.53602278-38.82411622-38.82535898c-16.24502363-16.24626517-37.9038136-25.19344864-60.98218006-25.19344864s-44.73591367 8.94718225-60.98342162 25.19469018c-33.6202447 33.62397055-33.6202447 88.33417945 0.00124155 121.95690845l39.37679467 39.37927897c-21.00426979 25.85542049-32.42049658 57.96169865-32.42049658 91.89740452 0 39.06878517 15.13221507 75.71447869 42.60468659 103.18695022 27.47122998 27.47122998 64.11568075 42.59971801 103.18198284 42.599718s75.71075284-15.12848923 103.18322437-42.599718l303.24913798-303.24168629c34.08474203 11.56774844 69.65612817 17.42117395 106.01368417 17.42117396 88.0870274 0 170.8981471-34.30084577 233.18191582-96.58585725 62.28873731-62.28997886 96.59330894-145.10855146 96.59330893-233.20054625C1022.08132801 259.70409957 987.77675518 176.88428544 925.48801908 114.59430658zM881.57677522 537.08539677c-50.55456385 50.55456385-117.77145424 78.39714387-189.27191472 78.39714387-35.25840805 0-69.5840944-6.76875954-102.02570448-20.11874129-11.59383055-4.77042369-24.91027851-2.10390463-33.77052361 6.757582l-317.37535359 317.36790191c-15.74326667 15.7420239-36.79348812 24.41224738-59.27446484 24.41224739-22.47973516 0-43.52995662-8.66898071-59.27322327-24.41224739-15.74450821-15.74326667-24.41473046-36.79348812-24.41473048-59.27570758s8.67022226-43.53244092 24.41597323-59.27570758l11.21751192-11.21751192c12.12539548-12.12539548 12.12539548-31.78460562 0-43.9100011l-60.77973815-60.78222244c-9.41043924-9.41168079-9.41043924-24.72770855 0-34.13814781 4.5170603-4.5170603 10.58037942-7.00473526 17.07093622-7.00473526s12.55387591 2.48767495 17.06969467 7.00473526l60.77973815 60.7809797c5.82237601 5.82237601 13.72009025 9.09497807 21.95562193 9.09497806 8.23429014 0 16.13200437-3.27136051 21.95562193-9.0937353l70.44850816-70.44602388c12.12539548-12.12539548 12.12539548-31.78460562 0.00124154-43.91000108l-60.78222245-60.78470554c-9.41043924-9.41168079-9.41043924-24.7264658 0.00124155-34.13938936 4.5170603-4.5170603 10.58037942-7.00473526 17.07093621-7.00473525 6.49055801 0 12.55263437 2.48767495 17.06969468 7.00473525l60.77973814 60.783464c5.82237601 5.82237601 13.72009025 9.09497807 21.95562193 9.09497807 8.23429014 0 16.13200437-3.27136051 21.95562193-9.09373531l79.60434248-79.60185818c8.86148665-8.86148665 11.52676295-22.18166045 6.75758201-33.77176516-41.26956415-100.2856982-18.39488114-214.62806255 58.27715982-291.29886196 50.56201554-50.56077399 117.78635882-78.40707986 189.29054516-78.40707987s138.72852841 27.84506433 189.29054515 78.40707987C985.95105329 262.87982729 985.95105329 432.70987715 881.57677522 537.08539677z" p-id="11380" fill="#e6e6e6"></path></svg>