<?xml version="1.0" encoding="UTF-8"?>
<svg width="16px" height="18px" viewBox="0 0 16 18" version="1.1" xmlns="http://www.w3.org/2000/svg" xmlns:xlink="http://www.w3.org/1999/xlink">
    <!-- Generator: Sketch 50.2 (55047) - http://www.bohemiancoding.com/sketch -->
    <title>ic_light@2x</title>
    <desc>Created with Sketch.</desc>
    <defs></defs>
    <g id="[交互]imes-web_1218" stroke="none" stroke-width="1">
        <g id="1-1左侧导航-系统主数据" transform="translate(-27.000000, -340.000000)">
            <g id="Group-4">
                <g id="ic_light" transform="translate(25.000000, 339.000000)">
                    <g id="Shape">
                        <path d="M5,11.6666667 L7.5,14.1666667 L7.5,18.3333333 L12.5,18.3333333 L12.5,14.1666667 L15,11.6666667 L15,7.5 L5,7.5 L5,11.6666667 Z M6.66666667,9.16666667 L13.3333333,9.16666667 L13.3333333,10.975 L10.8333333,13.475 L10.8333333,16.6666667 L9.16666667,16.6666667 L9.16666667,13.475 L6.66666667,10.975 L6.66666667,9.16666667 Z M9.16666667,1.66666667 L10.8333333,1.66666667 L10.8333333,4.16666667 L9.16666667,4.16666667 L9.16666667,1.66666667 Z M2.91833333,4.895 L4.09666667,3.71666667 L5.865,5.48333333 L4.68666667,6.6625 L2.91833333,4.895 Z M14.1333333,5.485 L15.9025,3.71833333 L17.08,4.89833333 L15.3108333,6.665 L14.1333333,5.485 Z" fill-rule="nonzero"></path>
                    </g>
                </g>
            </g>
        </g>
    </g>
</svg>
