<?xml version="1.0" standalone="no"?><!DOCTYPE svg PUBLIC "-//W3C//DTD SVG 1.1//EN" "http://www.w3.org/Graphics/SVG/1.1/DTD/svg11.dtd"><svg t="1551689151701" class="icon" style="" viewBox="0 0 1024 1024" version="1.1" xmlns="http://www.w3.org/2000/svg" p-id="2940" xmlns:xlink="http://www.w3.org/1999/xlink" width="200" height="200"><defs><style type="text/css"></style></defs><path d="M820.9 462.4H357.5V276.2c0-50.7 69.2-107.1 154.4-107.1 85.3 0 154.5 56.4 154.5 107.1v45.9h0.6c4.2 26.3 29.5 45.9 59.4 45.9 30.3 0 55.3-19.9 59.5-45.9h0.7v-45.9C786.7 157.9 663.6 62 512 62c-151.6 0-274.6 95.9-274.6 214.2v186.2H203c-56.8 0-102.9 34.7-102.9 85.4v322.5c0 50.7 46.1 91.8 102.9 91.8h617.9c56.9 0 103-41.1 103-91.8V547.8c0-50.7-46.1-85.4-103-85.4z m-260.3 312v29.1c0 26.3-20.2 47.6-48.7 47.6-28.4 0-50.1-21.3-50.1-47.6v-29.1c-40.6-16.9-60.1-53.3-60.1-95.5 0-58.4 43.8-92.9 110.2-92.9s111.6 34.6 111.6 92.9c0.1 42.2-22.3 78.6-62.9 95.5z m0 0" fill="#333333" p-id="2941"></path></svg>