<?xml version="1.0" encoding="UTF-8"?>
<svg width="310px" height="106px" viewBox="0 0 310 106" version="1.1" xmlns="http://www.w3.org/2000/svg" xmlns:xlink="http://www.w3.org/1999/xlink">
    <!-- Generator: Sketch 52.4 (67378) - http://www.bohemiancoding.com/sketch -->
    <title>上汽</title>
    <desc>Created with Sketch.</desc>
    <defs>
        <linearGradient x1="24.2351611%" y1="7.21146989%" x2="75.7334287%" y2="92.8237257%" id="linearGradient-1">
            <stop stop-color="#DDE0DF" offset="0%"></stop>
            <stop stop-color="#EEEEEF" offset="50%"></stop>
            <stop stop-color="#DDE0DF" offset="100%"></stop>
        </linearGradient>
        <linearGradient x1="50.875%" y1="0.0288461538%" x2="49.1346154%" y2="100.067308%" id="linearGradient-2">
            <stop stop-color="#EEEEEF" offset="0%"></stop>
            <stop stop-color="#E5E5E6" offset="11%"></stop>
            <stop stop-color="#D0D2D2" offset="41%"></stop>
            <stop stop-color="#C3C6C6" offset="71%"></stop>
            <stop stop-color="#BFC2C2" offset="100%"></stop>
        </linearGradient>
        <linearGradient x1="0%" y1="9%" x2="9%" y2="9%" id="linearGradient-3">
            <stop stop-color="#F7F7F7" offset="10%"></stop>
            <stop stop-color="#7A7B7F" offset="100%"></stop>
        </linearGradient>
        <linearGradient x1="0%" y1="10%" x2="8%" y2="10%" id="linearGradient-4">
            <stop stop-color="#F7F7F7" offset="10%"></stop>
            <stop stop-color="#7A7B7F" offset="100%"></stop>
        </linearGradient>
        <linearGradient x1="0%" y1="10%" x2="10%" y2="10%" id="linearGradient-5">
            <stop stop-color="#F7F7F7" offset="10%"></stop>
            <stop stop-color="#7A7B7F" offset="100%"></stop>
        </linearGradient>
        <linearGradient x1="0%" y1="9%" x2="13%" y2="9%" id="linearGradient-6">
            <stop stop-color="#F7F7F7" offset="10%"></stop>
            <stop stop-color="#7A7B7F" offset="100%"></stop>
        </linearGradient>
        <linearGradient x1="0%" y1="10%" x2="14%" y2="10%" id="linearGradient-7">
            <stop stop-color="#F7F7F7" offset="10%"></stop>
            <stop stop-color="#7A7B7F" offset="100%"></stop>
        </linearGradient>
        <linearGradient x1="0%" y1="50%" x2="100.510204%" y2="50%" id="linearGradient-8">
            <stop stop-color="#F7F7F7" offset="10%"></stop>
            <stop stop-color="#7A7B7F" offset="100%"></stop>
        </linearGradient>
        <linearGradient x1="0%" y1="10%" x2="11%" y2="10%" id="linearGradient-9">
            <stop stop-color="#F7F7F7" offset="10%"></stop>
            <stop stop-color="#7A7B7F" offset="100%"></stop>
        </linearGradient>
        <linearGradient x1="0%" y1="11%" x2="7%" y2="11%" id="linearGradient-10">
            <stop stop-color="#F7F7F7" offset="10%"></stop>
            <stop stop-color="#7A7B7F" offset="100%"></stop>
        </linearGradient>
        <linearGradient x1="0%" y1="11%" x2="17%" y2="11%" id="linearGradient-11">
            <stop stop-color="#F7F7F7" offset="10%"></stop>
            <stop stop-color="#7A7B7F" offset="100%"></stop>
        </linearGradient>
        <linearGradient x1="0%" y1="15%" x2="9%" y2="15%" id="linearGradient-12">
            <stop stop-color="#F7F7F7" offset="10%"></stop>
            <stop stop-color="#7A7B7F" offset="100%"></stop>
        </linearGradient>
        <linearGradient x1="-4%" y1="5%" x2="0%" y2="5%" id="linearGradient-13">
            <stop stop-color="#F7F7F7" offset="10%"></stop>
            <stop stop-color="#7A7B7F" offset="100%"></stop>
        </linearGradient>
        <linearGradient x1="0%" y1="11%" x2="22%" y2="11%" id="linearGradient-14">
            <stop stop-color="#F7F7F7" offset="10%"></stop>
            <stop stop-color="#7A7B7F" offset="100%"></stop>
        </linearGradient>
        <linearGradient x1="1%" y1="4%" x2="6%" y2="4%" id="linearGradient-15">
            <stop stop-color="#F7F7F7" offset="10%"></stop>
            <stop stop-color="#7A7B7F" offset="100%"></stop>
        </linearGradient>
        <linearGradient x1="0%" y1="4%" x2="9%" y2="4%" id="linearGradient-16">
            <stop stop-color="#F7F7F7" offset="10%"></stop>
            <stop stop-color="#7A7B7F" offset="100%"></stop>
        </linearGradient>
        <linearGradient x1="0%" y1="4%" x2="8%" y2="4%" id="linearGradient-17">
            <stop stop-color="#F7F7F7" offset="10%"></stop>
            <stop stop-color="#7A7B7F" offset="100%"></stop>
        </linearGradient>
        <linearGradient x1="-4%" y1="4%" x2="0%" y2="4%" id="linearGradient-18">
            <stop stop-color="#F7F7F7" offset="10%"></stop>
            <stop stop-color="#7A7B7F" offset="100%"></stop>
        </linearGradient>
        <linearGradient x1="-2%" y1="5%" x2="0%" y2="5%" id="linearGradient-19">
            <stop stop-color="#F7F7F7" offset="10%"></stop>
            <stop stop-color="#7A7B7F" offset="100%"></stop>
        </linearGradient>
        <linearGradient x1="-1%" y1="5%" x2="4%" y2="5%" id="linearGradient-20">
            <stop stop-color="#F7F7F7" offset="10%"></stop>
            <stop stop-color="#7A7B7F" offset="100%"></stop>
        </linearGradient>
        <linearGradient x1="0%" y1="29%" x2="99.7237569%" y2="29%" id="linearGradient-21">
            <stop stop-color="#F7F7F7" offset="10%"></stop>
            <stop stop-color="#7A7B7F" offset="100%"></stop>
        </linearGradient>
        <linearGradient x1="0.0651890482%" y1="49.9151282%" x2="100%" y2="49.9151282%" id="linearGradient-22">
            <stop stop-color="#F7F7F7" offset="10%"></stop>
            <stop stop-color="#7A7B7F" offset="100%"></stop>
        </linearGradient>
        <linearGradient x1="-0.724637681%" y1="50%" x2="100%" y2="50%" id="linearGradient-23">
            <stop stop-color="#F7F7F7" offset="10%"></stop>
            <stop stop-color="#7A7B7F" offset="100%"></stop>
        </linearGradient>
        <linearGradient x1="-1%" y1="4%" x2="11%" y2="4%" id="linearGradient-24">
            <stop stop-color="#F7F7F7" offset="10%"></stop>
            <stop stop-color="#7A7B7F" offset="100%"></stop>
        </linearGradient>
        <linearGradient x1="0%" y1="49.9189627%" x2="100%" y2="49.9189627%" id="linearGradient-25">
            <stop stop-color="#F7F7F7" offset="10%"></stop>
            <stop stop-color="#7A7B7F" offset="100%"></stop>
        </linearGradient>
        <linearGradient x1="3%" y1="8%" x2="13%" y2="8%" id="linearGradient-26">
            <stop stop-color="#F7F7F7" offset="10%"></stop>
            <stop stop-color="#7A7B7F" offset="100%"></stop>
        </linearGradient>
        <linearGradient x1="5.0500283e-14%" y1="50.0333111%" x2="99.9283988%" y2="50.0333111%" id="linearGradient-27">
            <stop stop-color="#F7F7F7" offset="10%"></stop>
            <stop stop-color="#7A7B7F" offset="100%"></stop>
        </linearGradient>
        <linearGradient x1="0.405679513%" y1="50.092081%" x2="100.40568%" y2="50.092081%" id="linearGradient-28">
            <stop stop-color="#F7F7F7" offset="10%"></stop>
            <stop stop-color="#7A7B7F" offset="100%"></stop>
        </linearGradient>
        <linearGradient x1="-0.78125%" y1="49.6436706%" x2="98.9583333%" y2="49.6436706%" id="linearGradient-29">
            <stop stop-color="#F7F7F7" offset="10%"></stop>
            <stop stop-color="#7A7B7F" offset="100%"></stop>
        </linearGradient>
    </defs>
    <g id="Page-1" stroke="none" stroke-width="1" fill="none" fill-rule="evenodd">
        <g id="综合" transform="translate(-990.000000, -475.000000)">
            <g id="logo-混合2" transform="translate(978.000000, 468.000000)">
                <g id="logo-shangqi-2" transform="translate(0.000000, 1.000000)">
                    <rect id="Rectangle-4" x="0" y="0" width="354.237212" height="118.025005"></rect>
                    <g id="上汽logo-2" stroke-width="1" fill-rule="evenodd" transform="translate(11.807907, 5.901250)">
                        <polygon id="Shape" fill="#FFFFFF" fill-rule="nonzero" points="156.423243 60.8574784 159.994275 60.8574784 159.994275 55.1354926 156.373088 55.2757864 143.232492 55.2757864 143.232492 40.7954544 152.491095 40.7954544 156.383119 40.7954544 156.383119 34.9231537 152.491095 35.0935105 143.232492 35.0935105 143.232492 26.6157521 143.232492 22.7977546 137.143682 22.7977546 137.143682 26.6157521 137.143682 55.2757864 124.805565 55.2757864 121.726052 55.1354926 121.726052 60.8574784 124.85572 60.8574784"></polygon>
                        <path d="M306.356436,22.9079855 L277.035855,22.9079855 L273.284265,22.7576706 L273.284265,60.8374365 L279.302858,60.8374365 L279.302858,59.8353374 L303.296984,59.8353374 L303.296984,60.8374365 L309.54629,60.8374365 L309.54629,22.7576706 L306.356436,22.9079855 Z M303.347139,54.1333935 L279.32292,54.1333935 L279.32292,45.8760969 L283.535936,50.4757317 C287.548331,47.3592035 291.420293,44.0121925 292.945003,39.8935652 L292.945003,46.838112 C292.945003,46.838112 292.945003,48.1007569 291.18958,48.1007569 C290.331956,48.0858011 289.479501,47.964624 288.65174,47.7400012 L289.233538,53.4619871 C292.1024,53.4619871 295.031449,52.8607276 296.25523,51.9889014 C297.479011,51.1170752 298.120994,49.1830239 298.120994,47.3391616 L298.120994,37.8593041 L302.303916,37.8593041 L302.303916,32.7485986 L300.297718,32.8588295 L298.171149,32.8588295 L298.171149,29.9527421 L292.90488,29.9527421 L292.90488,32.8588295 L283.746587,32.8588295 L280.907817,32.7485986 L280.907817,37.8593041 L288.501275,37.8593041 C285.893509,40.9684069 282.77227,43.6086476 279.272765,45.6656561 L279.272765,28.7201603 L303.266891,28.7201603 L303.347139,54.1333935 Z" id="Shape" fill="#FFFFFF" fill-rule="nonzero"></path>
                        <path d="M211.784271,52.1091533 L206.969397,49.9145562 C206.969397,49.9145562 206.788839,54.3237923 205.695461,54.3438343 C205.274159,54.3438343 204.311184,53.3417352 204.311184,50.5659207 L204.311184,39.5428305 L202.936939,39.6530614 L185.814041,39.6530614 L183.687471,39.5428305 L183.687471,44.8539558 L198.844295,44.8539558 L198.844295,49.8043253 C198.844295,54.4440442 200.850493,60.9476674 206.467847,60.8274155 C209.727919,60.7973525 211.102164,55.8269409 211.784271,52.1091533 Z" id="Shape" fill="#FFFFFF" fill-rule="nonzero"></path>
                        <path d="M178.732162,31.7966045 C179.914556,30.1941596 181.371445,28.8133605 183.035457,27.7180611 C182.111201,26.7444802 181.104346,25.8526256 180.02616,25.0524775 C179.091642,24.2637357 178.083985,23.5657898 177.016863,22.9681114 L172.803848,26.6357941 C173.958522,27.3615522 175.040218,28.1971854 176.033826,29.1310209 C177.006999,29.9418399 177.909672,30.8335556 178.732162,31.7966045 Z" id="Shape" fill="#FFFFFF" fill-rule="nonzero"></path>
                        <path d="M178.080148,40.6651815 C178.977338,38.9751606 180.209398,37.4852063 181.701335,36.2860085 C180.693816,35.4134904 179.61319,34.6289738 178.471357,33.9410966 C177.462607,33.2568188 176.391184,32.6696333 175.271471,32.1874231 L171.700439,36.1958195 C172.923248,36.7982775 174.085465,37.5163891 175.171161,38.3403116 C176.20491,39.0316642 177.178064,39.8094115 178.080148,40.6651815 Z" id="Shape" fill="#FFFFFF" fill-rule="nonzero"></path>
                        <path d="M182.222947,45.2648164 C180.506719,44.5140031 178.884092,43.5656116 177.38801,42.438897 C174.258341,51.287432 170.316163,55.2557445 170.316163,55.2557445 L175.131037,59.8553793 C178.611791,54.9851777 182.222947,45.2648164 182.222947,45.2648164 Z" id="Shape" fill="#FFFFFF" fill-rule="nonzero"></path>
                        <path d="M181.821707,34.9031117 C182.48638,35.6367303 183.065223,36.4436128 183.547037,37.3081496 C184.71951,36.5973779 185.797931,35.7422349 186.756954,34.7628178 L186.756954,37.949493 L204.632176,37.949493 L204.632176,33.0692704 L201.753282,33.1995432 L188.191385,33.1995432 C188.672873,32.6383677 189.134298,32.0571503 189.565631,31.4558908 L207.400729,31.4558908 L207.400729,26.6959201 L204.511804,26.8261929 L192.113502,26.8261929 C192.581157,25.7089807 192.969972,24.5604414 193.277097,23.388993 L187.479185,21.6453406 C186.285497,30.1932459 179.554704,32.5682208 179.554704,32.5682208 C179.554704,32.5682208 180.668143,33.6104039 181.821707,34.9031117 Z" id="Shape" fill="#FFFFFF" fill-rule="nonzero"></path>
                        <path d="M238.677353,60.8574784 L244.615698,60.8574784 L244.615698,52.8406856 C244.615698,52.8406856 248.78859,57.3300896 258.177596,59.6850225 C258.568804,58.6829234 260.294134,56.0874867 261.186892,54.5642961 C261.186892,54.5642961 254.686811,54.4240022 249.711441,50.6661306 L260.304165,50.6661306 L260.304165,45.3249424 L257.71617,45.4552152 L244.615698,45.4552152 L244.615698,44.2426753 L258.960013,44.2426753 L258.960013,39.9937751 L256.652885,40.124048 L246.521586,40.124048 L246.521586,38.9816551 L256.552575,38.9816551 L256.552575,35.3740983 L254.787121,35.4743082 L246.531617,35.4743082 L246.531617,34.3519572 L256.562606,34.3519572 L256.562606,30.7243585 L254.556408,30.8345894 L246.531617,30.8345894 L246.531617,29.6320704 L258.087317,29.6320704 L258.087317,25.2228344 L255.017834,25.3531073 L246.541648,25.3531073 C246.435519,24.1693551 246.217202,22.9983325 245.889634,21.8557814 L239.871041,22.8578805 C240.183989,23.6535405 240.412607,24.4797744 240.553148,25.3230443 L234.534554,25.3230443 C234.935794,24.1606093 235.126383,23.388993 235.126383,23.388993 L229.31844,21.6453406 C227.633234,28.3092996 221.293649,31.9870033 221.293649,31.9870033 C221.293649,31.9870033 222.376996,32.9891024 223.530559,34.3118732 C224.195233,35.0454918 224.774075,35.8523743 225.25589,36.7169111 C226.128817,36.2276483 226.966741,35.6785177 227.763637,35.0734686 L227.763637,41.5670707 L227.613172,44.2627173 L238.64726,44.2627173 L238.64726,45.4752572 L225.907904,45.4752572 L222.958793,45.3449843 L222.958793,50.6460886 L232.989782,50.6460886 C229.656151,52.7216624 225.971202,54.1717594 222.11619,54.9250518 C223.220976,56.6566881 224.225716,58.4500338 225.125487,60.2963029 C229.782334,58.1843886 234.284071,55.746564 238.597105,53.0010215 L238.677353,60.8574784 Z M240.844046,35.4743082 L233.019875,35.4743082 L233.019875,34.3118732 L240.844046,34.3118732 L240.844046,35.4743082 Z M240.844046,29.6220494 L240.844046,30.8345894 L233.019875,30.8345894 L233.019875,29.6320704 L240.844046,29.6220494 Z M233.019875,40.0839641 L233.019875,38.9816551 L240.844046,38.9816551 L240.844046,40.0839641 L233.019875,40.0839641 Z" id="Shape" fill="#FFFFFF" fill-rule="nonzero"></path>
                        <polygon id="Rectangle-path" fill="#FFFFFF" fill-rule="nonzero" points="165.029831 69.5156147 168.450399 69.5156147 168.450399 88.084511 165.029831 88.084511"></polygon>
                        <polygon id="Shape" fill="#FFFFFF" fill-rule="nonzero" points="213.569787 84.0560726 207.751814 69.5256357 203.137559 69.5256357 203.137559 88.07449 206.287289 88.07449 206.287289 73.5440531 212.115294 88.07449 215.034312 88.07449 220.872347 73.5440531 220.872347 88.07449 224.012047 88.07449 224.012047 69.5256357 219.397792 69.5256357"></polygon>
                        <path d="M239.499894,69.5556986 C236.628749,68.9127021 233.624973,69.2441633 230.963522,70.4976718 C228.247012,71.8270197 226.397424,74.449381 226.058369,77.4522396 C225.673966,80.1153685 226.435594,82.8166343 228.154845,84.8878149 C230.161043,87.2527688 233.742106,88.7759594 238.426578,88.2248049 C241.595633,88.0567082 244.468031,86.3089698 246.071594,83.5731214 C247.675157,80.8372731 247.795233,77.4795308 246.391183,74.6363411 C245.026966,71.949917 242.471667,70.0660083 239.499894,69.5556986 Z M237.975184,85.8297881 C230.582345,86.7016143 229.468905,80.8192925 229.368595,79.3061229 C229.228006,77.7131415 229.577997,76.1152763 230.371694,74.72653 C230.371694,74.72653 232.026807,71.7202327 236.751403,71.7202327 C240.242187,71.8204426 242.208261,73.4538641 243.080957,75.2075376 C243.863374,76.4200775 245.759231,84.4669333 237.985215,85.839809 L237.975184,85.8297881 Z" id="Shape" fill="#FFFFFF" fill-rule="nonzero"></path>
                        <path d="M279.473385,69.5556986 C276.599056,68.910401 273.591361,69.2419051 270.926983,70.4976718 C268.210473,71.8270197 266.360885,74.449381 266.021829,77.4522396 C265.637426,80.1153685 266.399054,82.8166343 268.118306,84.8878149 C270.124503,87.2527688 273.695536,88.7759594 278.390038,88.2248049 C281.559093,88.0567082 284.431492,86.3089698 286.035054,83.5731214 C287.638617,80.8372731 287.758694,77.4795308 286.354644,74.6363411 C284.991217,71.9534978 282.440786,70.0704363 279.473385,69.5556986 Z M277.948675,85.8297881 C270.555836,86.7016143 269.442396,80.8192925 269.342086,79.3061229 C269.201497,77.7131415 269.551488,76.1152763 270.345185,74.72653 C270.345185,74.72653 271.990267,71.7202327 276.724894,71.7202327 C280.215678,71.8204426 282.181752,73.4538641 283.054448,75.2075376 C283.876989,76.4200775 285.752784,84.4669333 277.948675,85.839809 L277.948675,85.8297881 Z" id="Shape" fill="#FFFFFF" fill-rule="nonzero"></path>
                        <path d="M301.240631,79.7871305 C305.253027,79.5766897 307.339473,77.3921136 307.40969,75.0171387 C307.48868,73.0414756 306.356831,71.2164525 304.550858,70.4074829 C303.115607,69.8943368 301.601407,69.6365689 300.077037,69.6458876 L289.384002,69.6458876 L289.384002,88.084511 L292.70426,88.084511 L292.70426,80.0677182 C292.70426,80.0677182 294.830829,80.0677182 296.435788,80.0677182 C297.301435,79.9950208 298.166545,80.2137284 298.89338,80.6890197 C300.668865,81.7512447 305.253027,88.0444271 305.253027,88.0444271 L309.44598,88.0444271 L304.77154,82.1721263 C303.863688,81.0380483 302.632332,80.2063132 301.240631,79.7871305 Z M298.923473,77.6326174 L292.70426,77.6326174 L292.70426,72.0409044 C292.70426,72.0409044 297.549227,72.0409044 299.565456,72.0409044 C301.581685,72.0409044 303.126457,72.521912 303.718286,73.6843469 C304.320222,74.8324551 303.903233,76.2505774 302.775373,76.8910641 C301.601747,77.7027643 298.923473,77.6326174 298.923473,77.6326174 Z" id="Shape" fill="#FFFFFF" fill-rule="nonzero"></path>
                        <path d="M149.682418,69.5156147 L140.514094,88.084511 L144.275715,88.084511 L146.743338,82.6030289 L155.99191,82.6030289 L158.459534,88.084511 L162.221155,88.084511 L153.052831,69.5156147 L149.682418,69.5156147 Z M147.836716,80.2280541 L151.367624,72.3816181 L154.898533,80.2280541 L147.836716,80.2280541 Z" id="Shape" fill="#FFFFFF" fill-rule="nonzero"></path>
                        <path d="M185.513111,85.0982557 C184.068464,85.8537879 182.4111,86.1009092 180.808577,85.7997251 C178.641936,85.6079439 176.747459,84.2632101 175.853269,82.2823572 C175.363374,81.0431735 175.13788,79.7154525 175.191223,78.3841917 C175.191223,78.3841917 174.930418,71.8505056 182.032358,71.7001907 C185.80401,71.5298339 187.308658,73.7043889 187.800177,74.8768449 L191.270899,74.8768449 C190.899961,73.6899256 190.241916,72.6126329 189.35498,71.7402747 C188.05173,70.5169164 186.407976,69.7168216 184.640415,69.4454677 C182.113718,69.0269055 179.520365,69.3147686 177.147266,70.27721 C175.089285,71.1227865 173.439124,72.7317961 172.543042,74.766614 C171.970135,76.1733612 171.716619,77.6895217 171.800749,79.205913 C171.865099,80.5349212 172.178116,81.8401222 172.7236,83.0539735 C173.582991,85.0719775 175.210648,86.665564 177.247576,87.4832516 C179.841259,88.4090265 182.644222,88.5827343 185.332553,87.9843011 C187.240533,87.5631178 188.946734,86.5022253 190.16749,84.9780038 C190.809355,84.056749 191.306607,83.0429607 191.642045,81.9717065 L188.131199,81.9717065 C187.714531,83.3230162 186.770918,84.4498899 185.513111,85.0982557 Z" id="Shape" fill="#FFFFFF" fill-rule="nonzero"></path>
                        <path d="M138.33737,79.7069625 C137.087815,78.6864406 135.600868,77.9971296 134.014013,77.7027643 C133.693022,77.6025544 130.824159,77.0413789 130.824159,77.0413789 C130.824159,77.0413789 130.061804,76.931148 128.667496,76.5804133 C127.273189,76.2296787 126.099563,75.828839 125.848788,74.8467819 C125.700339,74.2648825 125.846472,73.6472423 126.239997,73.1933184 C127.152817,72.3214922 128.115792,71.9707575 130.252392,71.8705476 C131.38568,71.7941261 132.522604,71.9510222 133.592712,72.3315132 C134.783255,72.7522239 135.623496,73.8219747 135.749374,75.0772647 L138.919167,75.0772647 C138.890763,73.9979389 138.541586,72.9514536 137.916068,72.0709674 C136.371296,70.1168741 133.903672,69.5456776 131.415987,69.3652998 C129.021675,69.139444 126.617752,69.6836496 124.554791,70.9185534 C122.683415,72.1725337 122.104626,74.6605998 123.2307,76.6104763 C124.604946,78.8251153 128.507,79.4263748 129.389727,79.6167736 C129.389727,79.6167736 130.573384,79.8372354 133.17141,80.4184529 C135.769436,80.9996704 136.441513,81.8815176 136.421451,83.0539735 C136.401389,84.2264295 135.418352,85.1182977 133.693022,85.5692423 C131.524332,86.1114245 129.237517,85.92838 127.18291,85.0481508 C125.916839,84.490224 125.047627,83.296727 124.905875,81.9216016 L121.756145,81.9216016 C121.804302,83.2256842 122.256434,84.4826876 123.050142,85.5191373 C125.266991,88.2648889 129.379696,88.4352457 131.767072,88.4051827 C134.154447,88.3751198 137.093527,87.4030836 138.327339,85.940019 C139.332427,84.9132764 139.783794,83.4673605 139.541088,82.0518744 C139.402141,81.1614428 138.980107,80.3392979 138.33737,79.7069625 Z" id="Shape" fill="#FFFFFF" fill-rule="nonzero"></path>
                        <polygon id="Shape" fill="#FFFFFF" fill-rule="nonzero" points="247.57484 72.0709674 254.817214 72.0709674 254.817214 88.084511 258.237781 88.084511 258.237781 72.0709674 265.490187 72.0709674 265.490187 69.5156147 247.57484 69.5156147"></polygon>
                        <ellipse id="Oval" fill="#00285E" fill-rule="nonzero" cx="53.2286493" cy="53.1659186" rx="50.6464636" ry="50.5959836"></ellipse>
                        <path d="M93.0474542,45.0944596 C88.4733232,43.7015418 65.4822964,37.0776668 53.2846137,37.0776668 C42.3207427,37.0776668 22.6499732,42.398813 15.4577541,44.4531161 C19.3770921,27.2872412 34.3851955,14.9166979 51.9998315,14.3330313 C69.6144676,13.7493646 85.4101231,25.0992153 90.459459,41.9679104 L90.5597689,42.3086241 L99.8986197,42.3086241 L99.8384338,41.9679104 L99.7180619,41.4568398 C93.8608346,18.0119612 71.4133435,2.61879206 47.4082207,5.58582734 C23.4030979,8.55286263 5.38778123,28.9472384 5.42676506,53.1112524 C5.42676506,53.6123019 5.42676506,54.1133515 5.42676506,54.5943591 C5.78788067,61.2482971 7.99469825,64.4349722 10.1312989,65.9481419 C11.3880003,66.9910349 12.9289669,67.633337 14.5549651,67.7920042 L89.1554305,67.7920042 C83.3525967,81.8922135 69.8149722,91.2847794 54.5628526,91.7927487 C39.3107331,92.300718 25.1769785,83.8297428 18.4469888,70.1469371 L8.55643364,70.1469371 L8.87742529,70.9285744 C17.409719,92.2116451 39.8640589,104.448015 62.3955797,100.093001 C84.9271005,95.7379862 101.19235,76.0176841 101.162524,53.0912104 C101.142462,47.3491825 93.0474542,45.0944596 93.0474542,45.0944596 Z M93.3684458,65.0262107 L12.1174347,65.0262107 L12.1174347,49.6840735 L20.7340543,44.6735779 L80.8497715,44.6735779 L93.3684458,48.7721633 L93.3684458,65.0262107 Z" id="Shape" fill="url(#linearGradient-1)" fill-rule="nonzero"></path>
                        <path d="M53.2244278,1.0020991 C24.416624,1.0020991 1.06328484,24.3321617 1.06328484,53.1112524 C1.06328484,81.8903431 24.416624,105.220406 53.2244278,105.220406 C82.0322315,105.220406 105.385571,81.8903431 105.385571,53.1112524 C105.385571,39.2910457 99.8900375,26.0368786 90.1079256,16.2645167 C80.3258138,6.49215485 67.058423,1.0020991 53.2244278,1.0020991 Z M53.2244278,104.14816 C25.0351718,104.126024 2.19759856,81.2857954 2.2068292,53.1246288 C2.21605984,24.9634622 25.0686013,2.13817988 53.2578657,2.13448728 C81.4471302,2.13079468 104.305663,24.9500892 104.322286,53.1112524 C104.348942,66.6634114 98.9759191,79.6690482 89.3891638,89.2575288 C79.8024085,98.8460094 66.7901298,104.228983 53.2244278,104.218307 L53.2244278,104.14816 Z" id="Shape" fill="url(#linearGradient-2)" fill-rule="nonzero"></path>
                        <path d="M53.2244278,1.0020991 C24.416624,1.0020991 1.06328484,24.3321617 1.06328484,53.1112524 C1.06328484,81.8903431 24.416624,105.220406 53.2244278,105.220406 C82.0322315,105.220406 105.385571,81.8903431 105.385571,53.1112524 C105.385571,39.2910457 99.8900375,26.0368786 90.1079256,16.2645167 C80.3258138,6.49215485 67.058423,1.0020991 53.2244278,1.0020991 Z M53.2244278,104.14816 C25.0351718,104.126024 2.19759856,81.2857954 2.2068292,53.1246288 C2.21605984,24.9634622 25.0686013,2.13817988 53.2578657,2.13448728 C81.4471302,2.13079468 104.305663,24.9500892 104.322286,53.1112524 C104.346269,66.6625967 98.9723867,79.6666819 89.3862112,89.2545826 C79.8000357,98.8424833 66.7893112,104.226313 53.2244278,104.218307 L53.2244278,104.14816 Z" id="Shape" fill="#FFFFFF" fill-rule="nonzero"></path>
                        <path d="M53.2244278,0.751574326 C32.0068206,0.755634163 12.8814489,13.5293373 4.76838711,33.115028 C-3.34467469,52.7007186 1.15273402,75.2402873 16.1630216,90.2212781 C31.1733091,105.202269 53.7396571,109.673634 73.3371196,101.549929 C92.934582,93.4262241 105.702731,74.3077059 105.6865,53.1112524 C105.66435,24.1834047 82.1811449,0.746033666 53.2244278,0.751574326 Z M53.2244278,105.290553 C24.416624,105.290553 1.06328484,81.96049 1.06328484,53.1813993 C1.06328484,24.4023086 24.416624,1.07224604 53.2244278,1.07224604 C82.0322315,1.07224604 105.385571,24.4023086 105.385571,53.1813993 C105.388231,67.0033422 99.8938728,80.2600838 90.1114726,90.0346132 C80.3290723,99.8091425 67.0601612,105.300574 53.2244278,105.300574 L53.2244278,105.290553 Z" id="Shape" fill="#231916" fill-rule="nonzero"></path>
                        <path d="M92.1145722,45.3249424 C87.6407511,44.0021716 65.1211807,37.5486533 53.1843038,37.5486533 C41.2474269,37.5486533 18.7278565,44.0021716 14.2440044,45.3249424 L13.702331,45.5053202 L13.752486,45.2247325 C17.3941749,27.295992 32.6954605,14.0856282 50.980377,13.0840356 C69.2652934,12.0824431 85.9206382,23.542319 91.5026819,40.9658113 L98.4140333,40.9658113 C92.2788137,18.3011999 70.2884502,3.68136797 46.9917108,6.77875858 C23.6949713,9.87614919 6.29753123,29.7327403 6.3094921,53.2114623 C6.3094921,53.7024909 6.3094921,54.2135614 6.3094921,54.664506 C7.02169232,66.4792544 13.5318042,67.1406398 14.9862976,67.1406398 L90.9309155,67.1406398 L90.8606986,67.3210176 C85.2861828,82.2129439 71.4486856,92.4226772 55.5616989,93.3657111 C39.6747121,94.308745 24.7243542,85.8078268 17.4238279,71.6801487 L10.091175,71.6801487 C18.8576707,92.1073929 40.7920373,103.562136 62.5854776,99.0941501 C84.378918,94.6261641 100.024434,75.4669748 100.029023,53.2415253 C100.039054,47.5796653 92.1145722,45.3249424 92.1145722,45.3249424 Z" id="Shape"></path>
                        <g id="Group" opacity="0.3" transform="translate(14.043385, 46.096559)" fill="#0053A3" fill-rule="nonzero">
                            <path d="M11.0340879,18.1880987 C7.88435737,18.1880987 1.5548033,17.9475949 0.8225411,12.0051472 L6.50008089,12.0051472 C6.71704594,13.7740643 8.24790382,15.0861617 10.030989,15.0314865 C11.2238597,15.1436344 12.4260412,14.9612502 13.5318042,14.500374 C14.3944693,14.0895134 14.7656158,13.6185268 14.7656158,12.9671624 C14.7656158,11.153363 10.5124765,10.7124394 8.42603078,10.3416627 C5.73772572,9.86065516 1.57486528,8.66815723 1.57486528,5.18085236 C1.57486528,1.87392532 6.59035979,0.170356847 10.3720427,0.170356847 C16.8119376,0.130272883 19.0588791,2.0041982 20.061978,5.56165001 L14.0433846,5.56165001 C14.0433846,3.50734686 11.4052345,3.14659118 9.47928463,3.14659118 C8.02479122,3.14659118 6.98156836,3.72780866 6.98156836,4.72990776 C6.98156836,5.73200686 9.32881979,6.01259461 10.6729723,6.29318236 C14.4847482,7.2451765 21.5967194,7.49570128 20.7039613,12.9471204 C19.9516372,17.857406 14.2640664,18.1880987 11.0340879,18.1880987 Z" id="Shape"></path>
                            <polygon id="Shape" points="38.4989359 18.0377838 37.2651242 15.0615495 28.7588455 15.0615495 27.5350649 18.0377838 20.5033416 18.0377838 29.2002091 0.440923605 36.8237607 0.440923605 45.5206282 18.0377838"></polygon>
                            <rect id="Rectangle-path" x="46.583913" y="0.481007569" width="6.8511655" height="17.5968602"></rect>
                            <path d="M77.6398551,11.7345805 C76.2756405,17.5367343 69.7354357,18.3183716 67.0370997,18.3183716 C63.6967803,18.3183716 60.9583203,17.867427 58.8116887,16.2440264 C56.7017209,14.7000163 55.4955288,12.2112054 55.5917412,9.60010939 C55.5917412,6.05267857 56.8757078,0.030062973 67.3480603,0.030062973 C71.6814476,0.030062973 76.3759504,2.49522676 77.649886,6.68400101 L71.7215715,6.68400101 C71.4808278,5.89234272 70.6281937,4.1286483 67.3982153,4.1286483 C65.8735049,4.1286483 61.8009234,4.22885821 61.8009234,9.27943768 C61.8009234,14.0193664 65.813319,14.6106049 67.3079364,14.6106049 C69.5953256,14.8358952 71.6496994,13.2091053 71.9522843,10.9329012 L77.7702579,10.9329012 L77.6398551,11.7345805 Z" id="Shape"></path>
                        </g>
                        <path d="M91.7835496,52.6302448 L85.8452041,52.6302448 C85.5743674,51.7884816 84.7417953,50.0247872 81.4215379,50.0247872 C79.8366416,50.0247872 75.5734713,50.0849131 75.5734713,55.3860173 C75.5734713,60.3965129 79.7764557,60.8674994 81.331259,60.8674994 C83.6117349,61.0729304 85.6678029,59.4942578 86.0558548,57.2399007 L91.8537665,57.2399007 L91.7835496,52.6302448 Z M81.2911351,60.6470376 C79.8366416,60.6470376 75.894463,60.0658201 75.894463,55.4060593 C75.894463,50.3955638 79.9068586,50.3955638 81.371383,50.3955638 C84.5311445,50.3955638 85.3837786,52.1291953 85.5944293,52.9008116 L85.8050801,52.9008116 L85.8050801,57.1196488 C85.4548963,59.307008 83.4569777,60.8413222 81.2510111,60.6169747 L81.2911351,60.6470376 Z" id="Shape" fill="#DDE0DF" fill-rule="nonzero"></path>
                        <polygon id="Shape" fill="#DDE0DF" fill-rule="nonzero" points="41.3377058 64.1243215 41.5784495 64.1243215 42.8022302 61.1781502 51.3085089 61.1581082 52.5322895 64.1243215 52.8031262 64.1243215 51.4990977 60.9977723 42.6317034 60.9977723"></polygon>
                        <polygon id="Rectangle-path" points="60.6874836 46.5174403 67.5486801 46.5174403 67.5486801 64.1343425 60.6874836 64.1343425"></polygon>
                        <path d="M60.6272977,46.5174403 L60.6272977,64.1343425 L67.4784632,64.1343425 L67.5386491,46.4773563 L60.6272977,46.5174403 Z M67.1474405,63.8437338 L61.0786922,63.8437338 L61.0786922,46.808049 L67.1474405,46.808049 L67.1474405,63.8437338 Z" id="Shape" fill="#DDE0DF" fill-rule="nonzero"></path>
                        <path d="M47.1456484,50.3955638 L44.0561038,57.7509712 L50.1549451,57.7509712 L47.1456484,50.3955638 Z M47.1456484,50.8966134 L49.9041704,57.5405304 L44.3570335,57.5405304 L47.1456484,50.8966134 Z" id="Shape" fill="#DDE0DF" fill-rule="nonzero"></path>
                        <polygon id="Shape" fill="#ADB2B4" fill-rule="nonzero" points="86.0658858 57.2399007 85.9856379 56.9693339 91.9039214 56.9693339 91.5728988 57.2399007"></polygon>
                        <polygon id="Shape" fill="#F7F7F7" fill-rule="nonzero" points="85.8552351 52.6302448 85.7649562 52.7905807 91.6932707 52.7905807 91.5327749 52.6302448"></polygon>
                        <polygon id="Shape" fill="#F7F7F7" fill-rule="nonzero" points="67.1474405 46.7679651 67.4782847 46.5775662 67.4782847 64.1744265 67.1474405 63.8437338"></polygon>
                        <polygon id="Shape" fill="#FFFFFF" fill-rule="nonzero" points="44.3269405 57.6006564 49.8841084 57.6006564 47.1055245 50.8064245"></polygon>
                        <path d="M24.7464499,52.3396361 C23.4022974,52.0089434 21.004891,51.6481877 21.004891,50.7763615 C21.004891,49.9045353 22.0079899,49.1930449 23.5026073,49.1930449 C25.4285572,49.1930449 28.0667073,49.5538006 28.0667073,51.6081037 L34.1454866,51.6081037 C33.1423877,48.0406309 30.8854152,46.1667056 24.3753033,46.1667056 C20.5735585,46.1667056 15.568095,47.910358 15.568095,51.1772011 C15.568095,54.664506 19.7309554,55.8670249 22.4192605,56.3480325 C24.5157372,56.7188091 28.7688765,57.1697537 28.7688765,58.9735321 C28.7688765,59.6349175 28.4077609,60.1059041 27.5350649,60.5167647 C26.4483925,60.9985329 25.2605265,61.208352 24.0743737,61.1280452 C22.2980829,61.1838036 20.769901,59.8826739 20.5434655,58.1217479 L14.8458638,58.1217479 C15.578126,64.0742166 21.917711,64.3147203 25.0674416,64.3147203 C28.2171721,64.3147203 34.0251148,63.9840276 34.8075319,59.073742 C35.680228,53.542155 28.5582258,53.2916302 24.7464499,52.3396361 Z" id="Shape"></path>
                        <path d="M43.2937486,46.4773563 L34.5868502,64.1343425 L41.6085425,64.1343425 L42.8423541,61.1280452 L51.3586638,61.1280452 L52.5924755,64.1343425 L59.6141678,64.1343425 L50.9173003,46.4773563 L43.2937486,46.4773563 Z M44.2968475,57.5605724 L47.1456484,50.8465084 L49.9242324,57.5605724 L44.2968475,57.5605724 Z" id="Shape"></path>
                        <polygon id="Shape" fill="#CFD2D2" fill-rule="nonzero" points="50.8771763 46.4873773 43.2536247 46.4873773 34.5166332 64.1543845 41.5784495 64.1543845 41.6887904 63.8437338 35.0382447 63.8437338 43.4843374 46.7579441 50.6464636 46.7579441 59.0925563 63.8437338 52.4420106 63.8437338 52.5924755 64.1543845 59.6241988 64.1543845"></polygon>
                        <path d="M92.9872683,45.0944596 C88.4131373,43.7516468 65.4221104,37.1578347 53.2244278,37.1578347 C42.2605568,37.1578347 22.5897873,42.4789809 15.3975682,44.5332841 C19.3270205,27.3707047 34.3411925,15.0094666 51.9551749,14.4352352 C69.5691573,13.8610038 85.3581094,25.2180329 90.3992731,42.0881623 L90.499583,42.428876 L99.8384338,42.428876 L99.7782478,42.0881623 L99.657876,41.5770917 C93.8061342,18.1545353 71.3938113,2.76482238 47.4078098,5.69890437 C23.4218083,8.63298635 5.38849838,28.9702018 5.36657913,53.1112524 C5.36657913,53.6123019 5.36657913,54.1133515 5.36657913,54.5943591 C5.73772572,61.2482971 7.93451232,64.4349722 10.071113,65.9481419 C11.3269217,66.9941178 12.8678299,67.6398863 14.4947791,67.8020252 L89.0952445,67.8020252 C83.3046942,81.9219285 69.7604642,91.334165 54.4949159,91.8466904 C39.2293677,92.3592158 25.0831386,83.8766585 18.3567099,70.1770001 L8.50627869,70.1770001 L8.82727034,70.9586374 C17.3772176,92.2187179 39.8202564,104.433114 62.3372599,100.080905 C84.8542633,95.7286967 101.117232,76.0329941 101.112369,53.1212734 C101.082276,47.4093085 92.9872683,45.0944596 92.9872683,45.0944596 Z M93.2881979,65.0362317 L12.0371868,65.0362317 L12.0371868,49.7341784 L20.6538064,44.7236829 L80.7795546,44.7236829 L93.2881979,48.7721633 L93.2881979,65.0362317 Z" id="Shape" fill="#FFFFFF" fill-rule="nonzero"></path>
                        <path d="M24.7464499,52.2995521 C23.4022974,51.9688594 21.004891,51.6081037 21.004891,50.7362775 C21.004891,49.8644513 22.0079899,49.1529609 23.5026073,49.1529609 C25.4285572,49.1529609 28.0667073,49.5137166 28.0667073,51.5680198 L34.1454866,51.5680198 C33.1022638,48.000547 30.8954462,46.0965587 24.3853343,46.0965587 C20.5835895,46.0965587 15.578126,47.8402111 15.578126,51.1070542 C15.578126,54.5943591 19.7409864,55.796878 22.4292915,56.2778855 C24.5257682,56.6486622 28.7789075,57.0996068 28.7789075,58.9134062 C28.7789075,59.5747916 28.4177919,60.0457782 27.5450959,60.4466178 C26.4395564,60.9082913 25.2371748,61.0907059 24.0442807,60.9777303 C22.2679899,61.0334887 20.739808,59.7323591 20.5133726,57.971433 L14.8458638,57.971433 C15.578126,63.9239017 21.917711,64.1644055 25.0674416,64.1644055 C28.2171721,64.1644055 34.0251148,63.8337128 34.8075319,58.9234272 C35.680228,53.502071 28.5582258,53.2515463 24.7464499,52.2995521 Z" id="Shape"></path>
                        <path d="M24.7464499,52.2995521 C23.4022974,51.9688594 21.004891,51.6081037 21.004891,50.7362775 C21.004891,49.8644513 22.0079899,49.1529609 23.5026073,49.1529609 C25.4285572,49.1529609 28.0667073,49.5137166 28.0667073,51.5680198 L34.1454866,51.5680198 C33.1022638,48.000547 30.8954462,46.0965587 24.3853343,46.0965587 C20.5835895,46.0965587 15.578126,47.8402111 15.578126,51.1070542 C15.578126,54.5943591 19.7409864,55.796878 22.4292915,56.2778855 C24.5257682,56.6486622 28.7789075,57.0996068 28.7789075,58.9134062 C28.7789075,59.5747916 28.4177919,60.0457782 27.5450959,60.4466178 C26.4395564,60.9082913 25.2371748,61.0907059 24.0442807,60.9777303 C22.2679899,61.0334887 20.739808,59.7323591 20.5133726,57.971433 L14.8458638,57.971433 C15.578126,63.9239017 21.917711,64.1644055 25.0674416,64.1644055 C28.2171721,64.1644055 34.0251148,63.8337128 34.8075319,58.9234272 C35.680228,53.502071 28.5582258,53.2515463 24.7464499,52.2995521 Z" id="Shape"></path>
                        <path d="M33.5035033,50.0548501 L33.5937336,50.245249 L33.5035033,50.0548501 Z" id="Shape" fill="url(#linearGradient-3)" fill-rule="nonzero"></path>
                        <path d="M33.6439372,50.3554799 L33.7241418,50.5458787 L33.6439372,50.3554799 Z" id="Shape" fill="url(#linearGradient-4)" fill-rule="nonzero"></path>
                        <path d="M33.3430075,49.7542204 L33.4432633,49.9446192 L33.3430075,49.7542204 Z" id="Shape" fill="url(#linearGradient-5)" fill-rule="nonzero"></path>
                        <path d="M32.9919229,49.2030659 L33.1222555,49.3934647 L32.9919229,49.2030659 Z" id="Shape" fill="url(#linearGradient-6)" fill-rule="nonzero"></path>
                        <path d="M32.8013341,48.9324991 L32.9517178,49.122898 L32.8013341,48.9324991 Z" id="Shape" fill="url(#linearGradient-7)" fill-rule="nonzero"></path>
                        <path d="M26.4015631,49.6540105 C27.3395804,49.8725825 28.0115785,50.6962983 28.0366143,51.6582087 L28.367637,51.6582087 C28.347575,50.5558997 27.4849099,49.9646612 26.4015631,49.6540105 Z" id="Shape" fill="url(#linearGradient-8)" fill-rule="nonzero"></path>
                        <path d="M33.77434,50.6661306 L33.8545447,50.8665504 L33.77434,50.6661306 Z" id="Shape" fill="url(#linearGradient-4)" fill-rule="nonzero"></path>
                        <path d="M33.1825117,49.4736326 L33.2927931,49.6640315 L33.1825117,49.4736326 Z" id="Shape" fill="url(#linearGradient-9)" fill-rule="nonzero"></path>
                        <path d="M33.8947119,50.9868023 L33.964891,51.1972431 L33.8947119,50.9868023 Z" id="Shape" fill="url(#linearGradient-10)" fill-rule="nonzero"></path>
                        <path d="M32.5806524,48.6719534 L32.7510872,48.8723732 L32.5806524,48.6719534 Z" id="Shape" fill="url(#linearGradient-11)" fill-rule="nonzero"></path>
                        <path d="M34.0050528,51.317495 L34.095283,51.6081037 L34.0050528,51.317495 Z" id="Shape" fill="url(#linearGradient-12)" fill-rule="nonzero"></path>
                        <path d="M34.4363853,60.26624 L34.4363853,60.3664499 L34.4363853,60.26624 Z" id="Shape" fill="url(#linearGradient-13)" fill-rule="nonzero"></path>
                        <path d="M32.3298776,48.4214286 L32.5404148,48.6418904 L32.3298776,48.4214286 Z" id="Shape" fill="url(#linearGradient-14)" fill-rule="nonzero"></path>
                        <path d="M33.8946795,61.298402 L33.834526,61.37857 L33.8946795,61.298402 Z" id="Shape" fill="url(#linearGradient-15)" fill-rule="nonzero"></path>
                        <path d="M33.3430075,61.9698084 L33.4332378,61.8796195 L33.3430075,61.9698084 Z" id="Shape" fill="url(#linearGradient-16)" fill-rule="nonzero"></path>
                        <path d="M33.5737203,61.7192837 L33.6539249,61.6290947 L33.5737203,61.7192837 Z" id="Shape" fill="url(#linearGradient-17)" fill-rule="nonzero"></path>
                        <path d="M34.2859205,60.6269956 L34.2859205,60.6971426 L34.2859205,60.6269956 Z" id="Shape" fill="url(#linearGradient-18)" fill-rule="nonzero"></path>
                        <path d="M34.68716,59.4445187 L34.68716,59.5447286 L34.68716,59.4445187 Z" id="Shape" fill="url(#linearGradient-19)" fill-rule="nonzero"></path>
                        <path d="M34.1053302,60.9877513 L34.0451768,61.0779402 L34.1053302,60.9877513 Z" id="Shape" fill="url(#linearGradient-20)" fill-rule="nonzero"></path>
                        <path d="M24.0242187,61.1280452 C25.2170894,61.2401931 26.4192709,61.0578088 27.5250339,60.5969327 L27.6554367,60.5368067 L27.5250339,60.5969327 C26.4192709,61.0578088 25.2170894,61.2401931 24.0242187,61.1280452 Z" id="Shape" fill="url(#linearGradient-21)" fill-rule="nonzero"></path>
                        <path d="M22.4092295,56.4282004 C24.5057062,56.7989771 28.7588455,57.2499217 28.7588455,59.0537001 C28.7401287,59.6836187 28.3446321,60.240713 27.7557466,60.4666598 L27.8560565,60.4666598 C28.7187216,60.0658201 29.0898682,59.6148756 29.0898682,58.9635111 C29.0898682,57.1998167 24.8367288,56.7689141 22.7402521,56.3981374 C20.0519471,55.9371719 15.8890866,54.7647159 15.8890866,51.3876419 C15.8890866,48.1709038 20.9045811,46.4673353 24.686264,46.4673353 C26.8163699,46.365145 28.9444839,46.7063959 30.9355702,47.4694344 C28.8647279,46.5554947 26.6049796,46.1500387 24.3452104,46.2869575 C20.5434655,46.2869575 15.548033,48.0306099 15.548033,51.297453 C15.558064,54.7546949 19.7108934,55.9572138 22.4092295,56.4282004 Z" id="Shape" fill="url(#linearGradient-22)" fill-rule="nonzero"></path>
                        <path d="M32.3291314,48.4114076 C31.9189046,48.0122085 31.4528672,47.6746548 30.9456011,47.4093085 C31.45257,47.6751341 31.9185414,48.01264 32.3291314,48.4114076 Z" id="Shape" fill="url(#linearGradient-23)" fill-rule="nonzero"></path>
                        <path d="M32.8915535,62.3806691 L32.7812721,62.470858 L32.8915535,62.3806691 Z" id="Shape" fill="url(#linearGradient-24)" fill-rule="nonzero"></path>
                        <path d="M25.3683712,64.0341326 C22.2387027,64.0341326 15.9693345,63.8036498 15.1668554,58.1017059 L14.8157708,58.1017059 C15.548033,64.0541746 21.8374631,64.2846574 25.0273176,64.2846574 C27.1839803,64.2846574 30.3938967,64.1443635 32.5505594,62.6311938 C30.4039277,63.9038597 27.414693,64.0341326 25.3683712,64.0341326 Z" id="Shape" fill="url(#linearGradient-25)" fill-rule="nonzero"></path>
                        <path d="M33.1022097,62.1301443 L33.0019539,62.2203332 L33.1022097,62.1301443 Z" id="Shape" fill="url(#linearGradient-26)" fill-rule="nonzero"></path>
                        <path d="M24.7464499,52.389741 C23.4022974,52.0590483 21.014922,51.6982927 21.014922,50.8264664 C21.014922,49.9546402 22.0180209,49.2631918 23.4223594,49.2431499 L23.1715846,49.2431499 C21.7170912,49.2431499 20.7741783,49.8343883 20.7741783,50.8465084 C20.7741783,51.8586285 23.0712748,52.1091533 24.4053963,52.389741 C28.2171721,53.3417352 35.3291433,53.59226 34.4363853,59.0436791 C33.6639992,63.8838177 28.1168622,64.2746364 24.8266978,64.2846574 L25.0774726,64.2846574 C28.347575,64.2846574 34.0351458,63.9539647 34.8175629,59.0436791 C35.670197,53.59226 28.5582258,53.3417352 24.7464499,52.389741 Z" id="Shape" fill="url(#linearGradient-27)" fill-rule="nonzero"></path>
                        <path d="M33.814464,51.6582087 L34.1053627,51.6582087 C33.1022638,48.0907359 30.8452913,46.2168106 24.3452104,46.2168106 L24.2148075,46.2168106 C30.5945165,46.2669155 32.8013341,48.1007569 33.814464,51.6582087 Z" id="Shape" fill="url(#linearGradient-28)" fill-rule="nonzero"></path>
                        <path d="M23.723289,61.1280452 L24.0743737,61.1280452 C22.3039917,61.1780234 20.7848523,59.8772017 20.5635275,58.1217479 L20.2224739,58.1217479 C20.4478218,59.8709331 21.9583724,61.1681065 23.723289,61.1280452 Z" id="Shape" fill="url(#linearGradient-29)" fill-rule="nonzero"></path>
                        <path d="M92.1145722,45.3249424 C87.6407511,44.0021716 65.1211807,37.5486533 53.1843038,37.5486533 C41.2474269,37.5486533 18.7278565,44.0021716 14.2440044,45.3249424 L13.702331,45.5053202 L13.752486,45.2247325 C17.3941749,27.295992 32.6954605,14.0856282 50.980377,13.0840356 C69.2652934,12.0824431 85.9206382,23.542319 91.5026819,40.9658113 L98.4140333,40.9658113 C92.2788137,18.3011999 70.2884502,3.68136797 46.9917108,6.77875858 C23.6949713,9.87614919 6.29753123,29.7327403 6.3094921,53.2114623 C6.3094921,53.7024909 6.3094921,54.2135614 6.3094921,54.664506 C7.02169232,66.4792544 13.5318042,67.1406398 14.9862976,67.1406398 L90.9309155,67.1406398 L90.8606986,67.3210176 C85.2861828,82.2129439 71.4486856,92.4226772 55.5616989,93.3657111 C39.6747121,94.308745 24.7243542,85.8078268 17.4238279,71.6801487 L10.091175,71.6801487 C18.8576707,92.1073929 40.7920373,103.562136 62.5854776,99.0941501 C84.378918,94.6261641 100.024434,75.4669748 100.029023,53.2415253 C100.039054,47.5796653 92.1145722,45.3249424 92.1145722,45.3249424 Z M25.0774726,64.2846574 C21.927742,64.2846574 15.5981879,64.0441536 14.8659257,58.1017059 L20.5434655,58.1017059 C20.7604306,59.8706229 22.2912885,61.1827203 24.0743737,61.1280452 C25.2672443,61.2401931 26.4694258,61.0578088 27.5751888,60.5969327 C28.4378539,60.186072 28.8090005,59.7150855 28.8090005,59.063721 C28.8090005,57.2499217 24.5558611,56.8089981 22.4694154,56.4382214 C19.7811104,55.9572138 15.6182499,54.7647159 15.6182499,51.277411 C15.6182499,47.970484 20.6337444,46.2669155 24.4154273,46.2669155 C30.8553222,46.2268316 33.1022638,48.1007569 34.1053627,51.6582087 L28.0867693,51.6582087 C28.0867693,49.6039055 25.4486192,49.2431499 23.5226693,49.2431499 C22.0681759,49.2431499 21.024953,49.8243673 21.024953,50.8264664 C21.024953,51.8285655 23.3722044,52.1091533 24.716357,52.389741 C28.5281328,53.3417352 35.640104,53.59226 34.747346,59.0436791 C33.9950218,63.9539647 28.307451,64.2846574 25.0774726,64.2846574 Z M52.5423205,64.1343425 L51.3085089,61.1280452 L42.8022302,61.1280452 L41.5684185,64.1343425 L34.5467262,64.1343425 L43.2435937,46.5374823 L50.8671453,46.5374823 L59.5640128,64.1343425 L52.5423205,64.1343425 Z M67.4784632,64.1343425 L60.6272977,64.1343425 L60.6272977,46.5775662 L67.4784632,46.5775662 L67.4784632,64.1343425 Z M91.6832397,57.7810342 C90.3190252,63.583188 83.7788203,64.3648253 81.0804843,64.3648253 C77.7401649,64.3648253 75.0017049,63.9138807 72.8550733,62.2904802 C70.7451056,60.74647 69.5389135,58.2576592 69.6351258,55.6465631 C69.6351258,52.0991323 70.9190924,46.0765167 81.3914449,46.0765167 C85.7248322,46.0765167 90.4193351,48.5416805 91.6932707,52.7304547 L85.7649562,52.7304547 C85.5242124,51.9387964 84.6715784,50.175102 81.4415999,50.175102 C79.9168896,50.175102 75.844308,50.2753119 75.844308,55.3258914 C75.844308,60.0658201 79.8567036,60.6570586 81.351321,60.6570586 C83.6387102,60.882349 85.6930841,59.2555591 85.9956689,56.9793549 L91.8136425,56.9793549 L91.6832397,57.7810342 Z" id="Shape" fill="#FFFFFF" fill-rule="nonzero"></path>
                        <polygon id="Shape" fill="#FFFFFF" fill-rule="nonzero" points="90.509614 42.398813 99.8484648 42.398813 98.4140333 40.9758323 91.4926509 40.9758323"></polygon>
                        <path d="M91.5929608,57.1196488 L91.4826199,57.7209083 C90.1585294,63.3326632 83.7587584,64.0942585 81.1507012,64.0942585 C77.9207227,64.0942585 75.2625107,63.6533349 73.1860959,62.0900603 C71.1341935,60.6027916 69.9512819,58.1980595 70.0263344,55.6666051 C70.0263344,52.2294052 71.310301,46.2468735 81.4415999,46.2468735 C85.5843984,46.2468735 90.2688702,48.7421003 91.5628678,52.7104127 L91.9942003,52.7104127 C90.6901718,48.4414706 85.895359,46.0063698 81.4817238,46.0063698 C70.7987205,46.0063698 69.444537,52.0189644 69.444537,55.6966681 C69.3455466,58.3607889 70.5787118,60.899779 72.7347014,62.470858 C74.931488,64.1243215 77.7501959,64.5852871 81.1306392,64.5852871 C83.8791302,64.5852871 90.5497379,63.7836078 91.9440454,57.8612021 L92.0844792,57.1296698 L91.5929608,57.1196488 Z" id="Shape" fill="#CCCFCF" fill-rule="nonzero"></path>
                        <path d="M81.4315689,60.6269956 C79.9369515,60.6269956 75.9145249,60.0357572 75.9145249,55.2858074 C75.9145249,50.2753119 79.9971375,50.1350181 81.5118168,50.1350181 C84.7417953,50.1350181 85.5944293,51.8987125 85.8351731,52.6903708 L91.7634876,52.6903708 C90.489552,48.5015965 85.7448942,46.0364327 81.4516309,46.0364327 C70.9792783,46.0364327 69.6953117,52.0490273 69.6953117,55.6165001 C69.6008765,58.2272229 70.8066868,60.7152458 72.9152592,62.2604172 C75.0719219,63.8838177 77.8103819,64.3347623 81.1507012,64.3347623 C83.8490373,64.3347623 90.3892421,63.543104 91.7534566,57.7409502 L91.8938905,56.9492919 L86.0759168,56.9492919 C85.768449,59.2227234 83.7173706,60.8469037 81.4315689,60.6269956 Z" id="Shape"></path>
                    </g>
                </g>
            </g>
        </g>
    </g>
</svg>