<?xml version="1.0" encoding="UTF-8"?>
<svg width="34px" height="34px" viewBox="0 0 34 34" version="1.1" xmlns="http://www.w3.org/2000/svg" xmlns:xlink="http://www.w3.org/1999/xlink">
    <!-- Generator: Sketch 52.4 (67378) - http://www.bohemiancoding.com/sketch -->
    <title>上汽logo</title>
    <desc>Created with Sketch.</desc>
    <defs>
        <linearGradient x1="24.2295597%" y1="7.02662474%" x2="75.7505241%" y2="92.7719078%" id="linearGradient-1">
            <stop stop-color="#DDE0DF" offset="0%"></stop>
            <stop stop-color="#EEEEEF" offset="50.3%"></stop>
            <stop stop-color="#DDE0DF" offset="100%"></stop>
        </linearGradient>
    </defs>
    <g id="[交互]imes-web_1218" stroke="none" stroke-width="1" fill="none" fill-rule="evenodd">
        <g id="1-1首页" transform="translate(-18.000000, -15.000000)">
            <g id="top" transform="translate(18.000000, 0.000000)">
                <g id="Group" transform="translate(0.000000, 15.000000)">
                    <g id="上汽logo">
                        <ellipse id="Oval" fill="#00285E" fill-rule="nonzero" transform="translate(16.989994, 16.943451) rotate(-90.000000) translate(-16.989994, -16.943451) " cx="16.9899943" cy="16.9434509" rx="16.7047741" ry="16.5471819"></ellipse>
                        <path d="M29.8228571,14.3377358 C28.3333333,13.9207547 20.9180952,11.8037736 17,11.8037736 C13.4704762,11.8037736 7.12380952,13.5037736 4.79238095,14.1773585 C6.0552381,8.66037736 11.0419048,4.52264151 17,4.52264151 C22.6666667,4.52264151 27.4590476,8.24339623 29.0133333,13.3754717 L29.0457143,13.4716981 L32.0571429,13.4716981 L32.0247619,13.3754717 C32.0247619,13.3113208 31.992381,13.2150943 31.992381,13.2150943 C30.3085714,6.54339623 24.2533333,1.63584906 17,1.63584906 C8.48380952,1.63584906 1.55428571,8.5 1.55428571,16.9358491 C1.55428571,17.0962264 1.55428571,17.2566038 1.55428571,17.4169811 C1.68380952,19.5339623 2.39619048,20.5603774 3.07619048,21.0415094 C3.07619048,21.0415094 3.72380952,21.6188679 4.50095238,21.6188679 C4.59809524,21.6188679 4.66285714,21.6188679 4.72761905,21.6188679 L28.592381,21.6188679 C26.7142857,26.1415094 22.2457143,29.3169811 17,29.3169811 C12.0780952,29.3169811 7.80380952,26.4943396 5.76380952,22.3886792 L2.55809524,22.3886792 C2.59047619,22.4849057 2.62285714,22.5490566 2.6552381,22.645283 C4.95428571,28.2584906 10.4914286,32.2358491 17,32.2358491 C25.5161905,32.2358491 32.4457143,25.3716981 32.4457143,16.9358491 C32.4457143,15.0754717 29.8228571,14.3377358 29.8228571,14.3377358 Z M29.952381,20.7207547 L3.72380952,20.7207547 L3.72380952,15.8132075 L6.50857143,14.209434 L25.9047619,14.209434 L29.952381,15.5245283 L29.952381,20.7207547 Z" id="Shape" fill="url(#linearGradient-1)" fill-rule="nonzero"></path>
                        <g id="Group" fill="#FFFFFF" fill-rule="nonzero">
                            <g id="SVGID_11_-link">
                                <path d="M16.967619,0.224528302 C7.67428571,0.224528302 0.12952381,7.69811321 0.12952381,16.9037736 C0.12952381,26.109434 7.67428571,33.5830189 16.967619,33.5830189 C26.2609524,33.5830189 33.8057143,26.109434 33.8057143,16.9037736 C33.8380952,7.69811321 26.2933333,0.224528302 16.967619,0.224528302 Z M16.967619,33.2622642 C7.86857143,33.2622642 0.485714286,25.9490566 0.485714286,16.9358491 C0.485714286,7.92264151 7.86857143,0.609433962 16.967619,0.609433962 C26.0666667,0.609433962 33.4495238,7.92264151 33.4495238,16.9358491 C33.4495238,25.9490566 26.0990476,33.2622642 16.967619,33.2622642 Z" id="SVGID_11_"></path>
                            </g>
                        </g>
                        <path d="M16.967619,0.160377358 C7.60952381,0.160377358 0.0323809524,7.66603774 0.0323809524,16.9358491 C0.0323809524,26.2056604 7.60952381,33.7113208 16.967619,33.7113208 C26.3257143,33.7113208 33.9028571,26.2056604 33.9028571,16.9358491 C33.9028571,7.66603774 26.3257143,0.160377358 16.967619,0.160377358 Z M16.967619,33.6150943 C7.67428571,33.6150943 0.12952381,26.1415094 0.12952381,16.9358491 C0.12952381,7.73018868 7.67428571,0.256603774 16.967619,0.256603774 C26.2609524,0.256603774 33.8057143,7.73018868 33.8057143,16.9358491 C33.8380952,26.1415094 26.2933333,33.6150943 16.967619,33.6150943 Z" id="Shape" fill="#231916" fill-rule="nonzero"></path>
                        <g id="Group" transform="translate(1.619048, 1.924528)">
                            <path d="M27.912381,12.4773585 C26.4552381,12.0603774 19.2019048,9.9754717 15.3485714,9.9754717 C11.4952381,9.9754717 4.20952381,12.0283019 2.7847619,12.4773585 C2.72,12.509434 2.62285714,12.5415094 2.62285714,12.5415094 C2.62285714,12.5415094 2.62285714,12.4773585 2.6552381,12.445283 C3.85333333,6.5754717 9.09904762,2.1490566 15.3809524,2.1490566 C21.1771429,2.1490566 26.0666667,5.90188679 27.7504762,11.0981132 L29.9847619,11.0981132 C28.2361905,4.71509434 22.3752381,0.0320754717 15.3809524,0.0320754717 C7.02666667,0.0320754717 0.259047619,6.73584906 0.259047619,15.0113208 C0.259047619,15.1716981 0.259047619,15.3320755 0.259047619,15.4924528 C0.453333333,19.2773585 2.59047619,19.4698113 3.04380952,19.4698113 C3.10857143,19.4698113 3.14095238,19.4698113 3.14095238,19.4698113 L3.36761905,19.4698113 C3.36761905,19.4698113 3.36761905,19.4698113 3.36761905,19.4698113 L27.1352381,19.4698113 L27.5561905,19.4698113 L27.5238095,19.5339623 C25.6780952,24.409434 20.9180952,27.9056604 15.3485714,27.9056604 C10.3295238,27.9056604 5.95809524,25.0830189 3.82095238,20.945283 L1.45714286,20.945283 C3.75619048,26.3018868 9.13142857,30.0226415 15.3485714,30.0226415 C23.7028571,30.0226415 30.4704762,23.3188679 30.4704762,15.0433962 C30.4704762,13.2150943 27.912381,12.4773585 27.912381,12.4773585 Z" id="Shape"></path>
                        </g>
                        <polygon id="Shape" fill="#FFFFFF" fill-rule="nonzero" points="14.1180952 18.3471698 15.8990476 18.3471698 14.992381 16.1660377"></polygon>
                        <path d="M29.8228571,14.3377358 C28.3333333,13.9207547 20.9180952,11.8037736 17,11.8037736 C13.4704762,11.8037736 7.12380952,13.5037736 4.79238095,14.1773585 C6.0552381,8.66037736 11.0419048,4.52264151 17,4.52264151 C22.6666667,4.52264151 27.4590476,8.24339623 29.0133333,13.3754717 L29.0457143,13.4716981 L32.0571429,13.4716981 L32.0247619,13.3754717 C32.0247619,13.3113208 31.992381,13.2150943 31.992381,13.2150943 C30.3085714,6.54339623 24.2533333,1.63584906 17,1.63584906 C8.48380952,1.63584906 1.55428571,8.5 1.55428571,16.9358491 C1.55428571,17.0962264 1.55428571,17.2566038 1.55428571,17.4169811 C1.68380952,19.5339623 2.39619048,20.5603774 3.07619048,21.0415094 C3.07619048,21.0415094 3.72380952,21.6188679 4.50095238,21.6188679 C4.59809524,21.6188679 4.66285714,21.6188679 4.72761905,21.6188679 L28.592381,21.6188679 C26.7142857,26.1415094 22.2457143,29.3169811 17,29.3169811 C12.0780952,29.3169811 7.80380952,26.4943396 5.76380952,22.3886792 L2.55809524,22.3886792 C2.59047619,22.4849057 2.62285714,22.5490566 2.6552381,22.645283 C4.95428571,28.2584906 10.4914286,32.2358491 17,32.2358491 C25.5161905,32.2358491 32.4457143,25.3716981 32.4457143,16.9358491 C32.4133333,15.0754717 29.8228571,14.3377358 29.8228571,14.3377358 Z M29.92,20.7207547 L3.69142857,20.7207547 L3.69142857,15.8132075 L6.47619048,14.209434 L25.872381,14.209434 L29.92,15.5245283 L29.92,20.7207547 Z" id="Shape" fill="#FFFFFF" fill-rule="nonzero"></path>
                        <path d="M29.5314286,14.4018868 C28.0742857,13.9849057 20.8209524,11.9 16.967619,11.9 C13.1142857,11.9 5.82857143,13.9528302 4.40380952,14.4018868 C4.33904762,14.4339623 4.24190476,14.4660377 4.24190476,14.4660377 C4.24190476,14.4660377 4.24190476,14.4018868 4.27428571,14.3698113 C5.47238095,8.5 10.7180952,4.07358491 17,4.07358491 C22.7961905,4.07358491 27.6857143,7.82641509 29.3695238,13.0226415 L31.6038095,13.0226415 C29.8552381,6.63962264 23.9942857,1.95660377 17,1.95660377 C8.64571429,1.95660377 1.87809524,8.66037736 1.87809524,16.9358491 C1.87809524,17.0962264 1.87809524,17.2566038 1.87809524,17.4169811 C2.07238095,21.2018868 4.20952381,21.3943396 4.66285714,21.3943396 C4.72761905,21.3943396 4.76,21.3943396 4.76,21.3943396 L4.98666667,21.3943396 C4.98666667,21.3943396 4.98666667,21.3943396 4.98666667,21.3943396 L28.7542857,21.3943396 L29.1752381,21.3943396 L29.1428571,21.4584906 C27.2971429,26.3339623 22.5371429,29.8301887 16.967619,29.8301887 C11.9485714,29.8301887 7.57714286,27.0075472 5.44,22.8698113 L3.07619048,22.8698113 C5.3752381,28.2264151 10.7504762,31.9471698 16.967619,31.9471698 C25.3219048,31.9471698 32.0895238,25.2433962 32.0895238,16.9679245 C32.0895238,15.1396226 29.5314286,14.4018868 29.5314286,14.4018868 Z M7.86857143,20.4962264 C6.8647619,20.4962264 4.79238095,20.4320755 4.56571429,18.5075472 L6.41142857,18.5075472 C6.44380952,18.8603774 6.76761905,19.4698113 7.5447619,19.4698113 C8.06285714,19.4698113 8.32190476,19.4698113 8.67809524,19.309434 C8.96952381,19.1811321 9.06666667,19.0207547 9.06666667,18.8283019 C9.06666667,18.2509434 7.70666667,18.1226415 7.02666667,17.9943396 C6.15238095,17.8339623 4.8247619,17.4490566 4.8247619,16.3264151 C4.8247619,15.2679245 6.44380952,14.7226415 7.67428571,14.7226415 C9.77904762,14.7226415 10.4914286,15.3320755 10.8152381,16.454717 L8.84,16.454717 C8.84,15.7811321 7.99809524,15.6849057 7.35047619,15.6849057 C6.8647619,15.6849057 6.54095238,15.8773585 6.54095238,16.1981132 C6.54095238,16.4867925 7.31809524,16.5830189 7.73904762,16.7113208 C8.96952381,17 11.2685714,17.0962264 10.9771429,18.8283019 C10.7828571,20.3679245 8.93714286,20.4962264 7.86857143,20.4962264 Z M16.7409524,20.4320755 L16.352381,19.4698113 L13.6,19.4698113 L13.2114286,20.4320755 L10.9447619,20.4320755 L13.7619048,14.7867925 L16.2228571,14.7867925 L19.04,20.4320755 L16.7409524,20.4320755 Z M21.5657143,20.4641509 L19.3638095,20.4641509 L19.3638095,14.8188679 L21.5657143,14.8188679 L21.5657143,20.4641509 Z M29.4019048,18.4113208 C28.9485714,20.2716981 26.8438095,20.5283019 25.9695238,20.5283019 C24.9009524,20.5283019 23.9942857,20.3679245 23.3142857,19.854717 C22.6342857,19.3415094 22.2780952,18.6358491 22.2780952,17.7377358 C22.2780952,16.6150943 22.6990476,14.6584906 26.0666667,14.6584906 C27.4590476,14.6584906 28.9809524,15.4603774 29.4019048,16.7754717 L27.4914286,16.7754717 C27.4266667,16.5188679 27.1352381,15.9735849 26.0990476,15.9735849 C25.6133333,15.9735849 24.2857143,16.0056604 24.2857143,17.609434 C24.2857143,19.1169811 25.5809524,19.309434 26.0666667,19.309434 C27.2,19.309434 27.4590476,18.5716981 27.5561905,18.1226415 L29.4342857,18.1226415 L29.4019048,18.4113208 Z" id="Shape" fill="#FFFFFF" fill-rule="nonzero"></path>
                        <polygon id="Shape" fill="#FFFFFF" fill-rule="nonzero" points="29.0133333 13.4759748 32.0247619 13.4759748 31.5714286 13.0226415 29.3371429 13.0226415"></polygon>
                    </g>
                </g>
            </g>
        </g>
    </g>
</svg>
