<?xml version="1.0" encoding="UTF-8"?>
<svg width="18px" height="18px" viewBox="0 0 18 18" version="1.1" xmlns="http://www.w3.org/2000/svg" xmlns:xlink="http://www.w3.org/1999/xlink">
    <!-- Generator: Sketch 50.2 (55047) - http://www.bohemiancoding.com/sketch -->
    <title>ic_renyuan@2x</title>
    <desc>Created with Sketch.</desc>
    <defs></defs>
    <g id="[交互]imes-web_1218" stroke="none" stroke-width="1">
        <g id="1-1左侧导航-系统主数据" transform="translate(-26.000000, -529.000000)">
            <g id="Group-4">
                <g id="ic_renyuan" transform="translate(25.000000, 528.000000)">
                    <g id="人员管理-(1)" transform="translate(2.000000, 2.000000)">
                        <path d="M3.85080519,4.04616052 C3.85080519,2.39354447 5.21613853,1.02524946 6.86517749,1.02524946 C8.51421645,1.02524946 9.87954978,2.39354447 9.87954978,4.04616052 C9.87954978,5.69877657 8.51421645,7.06707158 6.86517749,7.06707158 C5.21613853,7.06707158 3.85080519,5.69877657 3.85080519,4.04616052 Z M1.92692641,14.7970499 C1.41270996,14.7970499 1.02261472,14.3972234 1.02261472,13.8907766 C1.02261472,10.8698655 3.35432035,8.37317137 6.30663203,8.08885033 L6.9272381,8.08885033 C7.60990476,8.03554013 8.57627706,7.85783948 9.08162771,7.40470282 L9.31213853,7.2358872 C10.2785108,6.43623427 10.8459221,5.29895011 10.8459221,4.04616052 C10.8459221,1.82490239 9.0284329,0.00347071584 6.75878788,0.00347071584 C4.65759307,0.00347071584 2.8401039,1.82490239 2.8401039,4.04616052 C2.8401039,5.29895011 3.40751515,6.43623427 4.37388745,7.2358872 L4.65759307,7.40470282 L4.37388745,7.52020824 C1.75847619,8.54198698 0.00304761905,11.0475662 0.00304761905,13.8907766 C0.00304761905,14.9747505 0.854164502,15.8277137 1.93579221,15.8277137 L7.10455411,15.8277137 C7.27300433,15.8277137 7.55670996,15.658898 7.55670996,15.3123818 C7.55670996,14.9125553 7.27300433,14.7970499 7.10455411,14.7970499 L1.92692641,14.7970499 Z M15.0394459,12.5224816 C14.188329,12.637987 13.5588571,13.3221345 13.5588571,14.2284078 C13.5588571,14.3972234 13.6120519,14.6282343 13.6741126,14.7437397 L12.9382511,15.1435662 L12.6545455,14.8592451 C12.317645,14.6282343 12.0339394,14.5216139 11.6881732,14.5216139 C11.4044675,14.5216139 11.0675671,14.6371193 10.7218009,14.8592451 C10.6065455,14.9747505 10.49129,15.0280607 10.4380952,15.1435662 L9.75542857,14.7437397 C9.80862338,14.6282343 9.87068398,14.4061085 9.87068398,14.2284078 C9.87068398,13.3754447 9.25007792,12.637987 8.39009524,12.5224816 C8.39009524,12.4069761 8.33690043,12.1848503 8.33690043,11.9538395 C8.33690043,11.7850239 8.39009524,11.554013 8.39009524,11.3851974 C9.24121212,11.269692 9.87068398,10.5855445 9.87068398,9.67927115 C9.87068398,9.51045553 9.81748918,9.27944469 9.75542857,9.16393926 L10.49129,8.7641128 C10.5444848,8.81742299 10.6597403,8.93292842 10.7749957,8.99512364 C11.1118961,9.22613449 11.3956017,9.33275488 11.6793074,9.33275488 C11.963013,9.33275488 12.2467186,9.21724946 12.583619,8.99512364 C12.6988745,8.87961822 12.8141299,8.82630803 12.8673247,8.7641128 L13.6031861,9.16393926 C13.5499913,9.27944469 13.4879307,9.5015705 13.4879307,9.67927115 C13.4879307,10.5322343 14.1085368,11.269692 14.9685195,11.3851974 C14.9685195,11.5007028 15.0217143,11.7228286 15.0217143,11.9538395 C15.1015065,12.1226551 15.0394459,12.3536659 15.0394459,12.5224816 Z M15.837368,11.1008764 C15.7841732,10.8165553 15.5536623,10.5855445 15.3231515,10.5855445 L15.2699567,10.5855445 C14.7557403,10.5855445 14.365645,10.185718 14.365645,9.67927115 C14.365645,9.56376573 14.4188398,9.39495011 14.4188398,9.34163991 C14.5340952,9.05731887 14.4188398,8.71968764 14.188329,8.54198698 L13.1687619,7.9733449 L12.8850563,7.9733449 C12.7166061,7.9733449 12.4860952,8.0266551 12.3708398,8.20435575 C12.2555844,8.31986117 11.918684,8.60418221 11.6881732,8.60418221 C11.4576623,8.60418221 11.1207619,8.31986117 10.9523117,8.20435575 C10.8370563,8.08885033 10.6686061,7.9733449 10.4380952,7.9733449 C10.3228398,7.9733449 10.269645,7.9733449 10.2075844,8.0266551 L9.12595671,8.59529718 C8.89544589,8.7641128 8.78905628,9.11062907 8.89544589,9.39495011 C8.89544589,9.39495011 8.94864069,9.56376573 8.94864069,9.73258134 C8.94864069,10.2479132 8.54967965,10.6388547 8.044329,10.6388547 L7.9911342,10.6388547 C7.76062338,10.6388547 7.53897835,10.8698655 7.47691775,11.1541866 C7.47691775,11.2074967 7.36166234,11.6073232 7.36166234,12.0071497 C7.36166234,12.3447809 7.41485714,12.8068026 7.47691775,12.8601128 C7.53011255,13.1444338 7.76062338,13.3754447 7.9911342,13.3754447 L8.044329,13.3754447 C8.55854545,13.3754447 8.94864069,13.7752711 8.94864069,14.281718 C8.94864069,14.3972234 8.89544589,14.566039 8.89544589,14.6193492 C8.78019048,14.9036703 8.89544589,15.2413015 9.12595671,15.4190022 L10.1455238,15.9876443 C10.2607792,15.9343341 10.313974,15.9343341 10.4292294,15.9343341 C10.5976797,15.9343341 10.8281905,15.8810239 10.9434459,15.7033232 C11.0587013,15.5878178 11.3956017,15.2501866 11.6793074,15.2501866 C11.9098182,15.2501866 12.2999134,15.5345076 12.4151688,15.7033232 C12.5304242,15.8188286 12.6988745,15.9343341 12.9293853,15.9343341 C13.0446407,15.9343341 13.0978355,15.9343341 13.2130909,15.8810239 L14.232658,15.3123818 C14.4631688,15.1435662 14.5695584,14.7970499 14.4631688,14.5127289 C14.4631688,14.5127289 14.409974,14.3439132 14.409974,14.1750976 C14.409974,13.6597657 14.8089351,13.2688243 15.3142857,13.2688243 L15.3674805,13.2688243 C15.5979913,13.2688243 15.8196364,13.0378134 15.881697,12.7534924 C15.881697,12.7534924 15.9969524,12.3003557 15.9969524,11.9005293 C15.8905628,11.6162082 15.837368,11.1630716 15.837368,11.1008764 Z M11.6881732,12.6912972 C11.2892121,12.6912972 10.9523117,12.3536659 10.9523117,11.9538395 C10.9523117,11.554013 11.2892121,11.2163818 11.6881732,11.2163818 C12.0871342,11.2163818 12.4240346,11.554013 12.4240346,11.9538395 C12.4329004,12.3536659 12.0871342,12.6912972 11.6881732,12.6912972 Z M11.9718788,10.4167289 C10.8902511,10.185718 9.92387879,11.1541866 10.1543896,12.2914707 C10.269645,12.913423 10.7749957,13.4287549 11.4044675,13.5442603 C12.4860952,13.7752711 13.4524675,12.8068026 13.2219567,11.7228286 C13.1155671,11.0475662 12.6013506,10.5322343 11.9718788,10.4167289 Z" id="Shape"></path>
                    </g>
                </g>
            </g>
        </g>
    </g>
</svg>
