<?xml version="1.0" encoding="UTF-8"?>
<svg width="16px" height="16px" viewBox="0 0 16 16" version="1.1" xmlns="http://www.w3.org/2000/svg" xmlns:xlink="http://www.w3.org/1999/xlink">
    <!-- Generator: Sketch 50.2 (55047) - http://www.bohemiancoding.com/sketch -->
    <title>ic_wuliao@2x</title>
    <desc>Created with Sketch.</desc>
    <defs></defs>
    <g id="[交互]imes-web_1218" stroke="none" stroke-width="1">
        <g id="1-1左侧导航-系统主数据" transform="translate(-27.000000, -467.000000)">
            <g id="Group-4">
                <g id="ic_wuliao" transform="translate(25.000000, 465.000000)">
                    <g id="物料" transform="translate(2.000000, 2.000000)">
                        <path d="M15.986416,9.07257048 C15.9893318,9.04073492 15.9893318,9.0087018 15.986416,8.97686623 L15.986416,8.94466667 C15.9650599,8.8644879 15.9232201,8.79115799 15.8649559,8.73179181 L15.8397642,8.71032544 C15.8153792,8.68759398 15.7888677,8.66722786 15.7605903,8.64950405 L12.2931313,6.65492016 L12.2931313,2.62997513 C12.2959698,2.59813611 12.2959698,2.56610989 12.2931313,2.53427088 L12.2931313,2.49849358 C12.2691829,2.41753985 12.224908,2.34397543 12.1644736,2.28472428 L12.1392819,2.26325791 C12.1151536,2.24060403 12.0889482,2.22024168 12.0610077,2.20243652 L8.33893251,0.0718989375 C8.17191089,-0.023966021 7.96613177,-0.023966021 7.79911015,0.0718989375 L4.07973408,2.20422538 C4.05181759,2.22206418 4.02561524,2.24242417 4.00145983,2.26504677 L3.97626813,2.28651314 C3.9476021,2.31662826 3.92254314,2.34994449 3.90159271,2.38579513 C3.88159144,2.42171425 3.86588966,2.45983813 3.85480809,2.49938802 L3.85480809,2.5351653 C3.85188731,2.56700064 3.85188731,2.5990342 3.85480809,2.63086955 L3.85480809,6.62987606 L0.38644943,8.6208822 C0.358532936,8.63872101 0.332330588,8.659081 0.308175183,8.68170359 L0.143529367,8.71748089 C0.0821171232,8.77607583 0.0368845257,8.84937911 0.0121725894,8.93035577 L0.0121725894,8.96613305 C0.00925677795,8.99796862 0.00925677795,9.03000173 0.0121725894,9.0618373 L0.0121725894,13.348851 C0.0130106123,13.5397447 0.115787971,13.7158265 0.282083772,13.8112725 L4.00415895,15.9444933 L4.02215302,15.9444933 L4.11212343,15.9838483 L4.14451275,15.9838483 C4.2264782,16.0053839 4.31266502,16.0053839 4.39463046,15.9838483 L4.4270198,15.9838483 L4.51699019,15.9444933 L4.53498427,15.9444933 L8.00244324,13.9534872 L11.4708019,15.9444933 L11.488796,15.9444933 L11.5787664,15.9838483 L11.6111557,15.9838483 C11.6931212,16.0053839 11.779308,16.0053839 11.8612734,15.9838483 L11.8882645,15.9838483 L11.9782349,15.9444933 L11.996229,15.9444933 L15.7183042,13.8112725 C15.8846,13.7158265 15.9873773,13.5397447 15.9882154,13.348851 L15.9882154,9.07257048 L15.986416,9.07257048 Z M11.7281172,10.6083106 L9.06409388,9.07257048 L11.713722,7.55203569 L14.3777453,9.07257048 L11.7281172,10.6083106 Z M4.25517635,10.6083106 L1.60554826,9.07257048 L4.25517635,7.55203569 L6.9191997,9.07257048 L4.25517635,10.6083106 Z M7.47341732,5.09860808 L7.47341732,8.13967767 L4.80579516,6.61914288 L4.80579516,3.57807328 L7.47341732,5.09860808 Z M11.1810972,6.61914288 L8.52787033,8.13967767 L8.52787033,5.09860808 L11.1774984,3.57807328 L11.1810972,6.61914288 Z M7.99164679,1.1309067 L10.6412749,2.65144148 L7.99164679,4.17197628 L5.3420187,2.65144148 L7.99164679,1.1309067 Z M1.06572589,10.0179854 L3.70095873,11.5286814 L3.70095873,14.569751 L1.06932472,13.0492162 L1.06572589,10.0179854 Z M4.77340582,14.5715398 L4.77340582,11.5304703 L7.4230339,10.0099355 L7.4230339,13.051005 L4.77340582,14.5715398 Z M8.54226559,10.0099355 L11.1918937,11.5304703 L11.1918937,14.5715398 L8.54226559,13.051005 L8.54226559,10.0099355 Z M12.2643408,14.5715398 L12.2643408,11.5304703 L14.9139689,10.0099355 L14.9139689,13.051005 L12.2643408,14.5715398 Z" id="Shape"></path>
                    </g>
                </g>
            </g>
        </g>
    </g>
</svg>
