<?xml version="1.0" encoding="UTF-8"?>
<svg width="16px" height="16px" viewBox="0 0 16 16" version="1.1" xmlns="http://www.w3.org/2000/svg" xmlns:xlink="http://www.w3.org/1999/xlink">
    <!-- Generator: Sketch 50.2 (55047) - http://www.bohemiancoding.com/sketch -->
    <title>ic_yewu@2x</title>
    <desc>Created with Sketch.</desc>
    <defs></defs>
    <g id="[交互]imes-web_1218" stroke="none" stroke-width="1">
        <g id="1-1左侧导航-系统主数据" transform="translate(-27.000000, -216.000000)">
            <g id="Group-4">
                <g id="ic_yewu" transform="translate(25.000000, 214.000000)">
                    <g id="ic_speed">
                        <path d="M9.16666667,14.1666667 C9.16666667,14.625 9.54166667,15 10,15 C10.4583333,15 10.8333333,14.625 10.8333333,14.1666667 C10.8333333,13.7083333 10.4583333,13.3333333 10,13.3333333 C9.54166667,13.3333333 9.16666667,13.7083333 9.16666667,14.1666667 Z M9.16666667,2.5 L9.16666667,5.83333333 L10.8333333,5.83333333 L10.8333333,4.23333333 C13.6583333,4.64166667 15.8333333,7.05833333 15.8333333,10 C15.8333333,13.225 13.225,15.8333333 10,15.8333333 C6.775,15.8333333 4.16666667,13.225 4.16666667,10 C4.16666667,8.6 4.65833333,7.31666667 5.48333333,6.31666667 L10,10.8333333 L11.175,9.65833333 L5.50833333,3.99166667 L5.50833333,4.00833333 C3.68333333,5.375 2.5,7.54166667 2.5,10 C2.5,14.1416667 5.85,17.5 10,17.5 C14.1416667,17.5 17.5,14.1416667 17.5,10 C17.5,5.85833333 14.1416667,2.5 10,2.5 L9.16666667,2.5 Z M15,10 C15,9.54166667 14.625,9.16666667 14.1666667,9.16666667 C13.7083333,9.16666667 13.3333333,9.54166667 13.3333333,10 C13.3333333,10.4583333 13.7083333,10.8333333 14.1666667,10.8333333 C14.625,10.8333333 15,10.4583333 15,10 Z M5,10 C5,10.4583333 5.375,10.8333333 5.83333333,10.8333333 C6.29166667,10.8333333 6.66666667,10.4583333 6.66666667,10 C6.66666667,9.54166667 6.29166667,9.16666667 5.83333333,9.16666667 C5.375,9.16666667 5,9.54166667 5,10 Z" id="Shape"></path>
                    </g>
                </g>
            </g>
        </g>
    </g>
</svg>
