<?xml version="1.0" encoding="UTF-8"?>
<svg width="14px" height="17px" viewBox="0 0 14 17" version="1.1" xmlns="http://www.w3.org/2000/svg" xmlns:xlink="http://www.w3.org/1999/xlink">
    <!-- Generator: Sketch 50.2 (55047) - http://www.bohemiancoding.com/sketch -->
    <title>ic_zhiliang@2x</title>
    <desc>Created with Sketch.</desc>
    <defs></defs>
    <g id="[交互]imes-web_1218" stroke="none" stroke-width="1">
        <g id="1-1左侧导航-系统主数据" transform="translate(-28.000000, -404.000000)">
            <g id="Group-4">
                <g id="ic_zhiliang" transform="translate(25.000000, 402.000000)">
                    <g id="质量" transform="translate(3.000000, 2.000000)">
                        <path d="M6.90975886,1.35743924 L12.5616291,3.88587545 L12.5616291,7.7466837 C12.5616291,9.5787077 11.952793,11.4107483 10.8286289,12.9096378 C9.79821211,14.3025451 8.40863864,15.3017661 6.90977596,15.756054 C5.39537136,15.3017827 4.02142529,14.3025451 2.99092298,12.9096378 C1.86684434,11.4107649 1.25792284,9.5787077 1.25792284,7.7466837 L1.25792284,3.88587545 L6.90975886,1.35743924 Z M6.90975886,0.00991265669 L0.00889338916,3.09855262 L0.00889338916,7.73151259 C0.00889338916,12.0163162 2.95973656,16.0133992 6.90975886,16.9974822 C10.875494,16.0285703 13.8107269,12.0163162 13.8107269,7.73151259 L13.8107269,3.09855262 L6.90975886,0.00991265669 Z M10.641254,8.47347128 C10.641254,6.45975867 8.97066086,4.83973233 6.89413145,4.83973233 C4.81768753,4.83973233 3.14711151,6.45977525 3.14711151,8.47347128 C3.14711151,10.4870844 4.81768753,12.1071273 6.89413145,12.1071273 C7.36257733,12.1071273 7.79970002,12.0162996 8.2212808,11.8800746 L9.36098683,12.985311 L10.2509451,12.1222818 L9.32973203,11.2289768 C10.1260114,10.5627742 10.641254,9.57870769 10.641254,8.47347128 Z M6.89413145,10.8959252 C5.52027086,10.8959252 4.39610676,9.80576041 4.39610676,8.47347128 C4.39610676,7.1411158 5.52028798,6.050951 6.89413145,6.050951 C8.26806042,6.050951 9.39224164,7.1411158 9.39224164,8.47347128 C9.39224164,9.24555666 9.01754305,9.92689722 8.43987634,10.3660471 L7.59673189,9.54839863 L6.70680781,10.4114278 L7.1907785,10.8808038 C7.09709958,10.8807873 6.98779326,10.8959252 6.89413145,10.8959252 Z" id="Shape"></path>
                    </g>
                </g>
            </g>
        </g>
    </g>
</svg>
